<svg width="554" height="920" viewBox="0 0 554 920" fill="none" xmlns="http://www.w3.org/2000/svg">
<ellipse cx="287.5" cy="444" rx="238.5" ry="239" fill="#3FACFF"/>
<path d="M389.203 246.812V328.929L350.573 367.321L321.927 338.85L316.392 344.353L197.845 462.164L292.932 556.66L248.724 600.593L248.725 642.476H264.379L264.379 607.038L304.001 567.661L321.927 585.477L446.004 462.165L395.606 412.079L452.104 355.927V246.812L436.45 246.812V349.484L384.536 401.077L361.641 378.323L404.856 335.375V246.812H389.203ZM58.8599 255.893V271.45H215.175L252.245 308.291C250.028 312.067 248.862 316.362 248.868 320.734C248.868 334.406 260.019 345.489 273.773 345.489C287.528 345.489 298.679 334.406 298.679 320.735C298.679 307.066 287.528 295.985 273.773 295.985C270.303 295.985 266.998 296.693 263.996 297.968L221.66 255.894L58.8599 255.894V255.893ZM58.8599 302.078V317.638L168.7 317.64L205.77 354.481C203.552 358.257 202.386 362.552 202.39 366.924C202.39 380.594 213.541 391.676 227.296 391.676C241.051 391.676 252.202 380.594 252.202 366.924C252.202 353.255 241.051 342.172 227.297 342.172C223.826 342.172 220.522 342.879 217.52 344.155L175.184 302.081H58.8615L58.8599 302.078ZM128.71 348.267L58.8607 348.268V363.827L122.227 363.825L159.297 400.671C157.08 404.447 155.914 408.741 155.919 413.113C155.919 426.783 167.07 437.866 180.825 437.866C194.579 437.866 205.728 426.783 205.728 413.113C205.728 399.443 194.579 388.359 180.825 388.359C177.352 388.359 174.048 389.067 171.045 390.343L128.71 348.267ZM321.927 360.854L423.866 462.165L321.927 563.471L219.986 462.165L321.927 360.855V360.854ZM320.876 383.654L241.654 462.386L321.243 541.485L332.313 530.485L263.794 462.387L331.947 394.654L320.876 383.654ZM58.8615 401.601L58.8615 444.23L192.998 577.537L192.998 642.476H208.654L208.654 550.464L58.8615 401.601ZM349.122 408.591L338.055 419.592L381.178 462.45L337.812 505.548L348.885 516.549L403.318 462.45L349.125 408.59L349.122 408.591ZM324.051 436.197C309.434 436.197 297.587 447.974 297.587 462.498C297.587 477.021 309.435 488.797 324.049 488.797C338.667 488.797 350.514 477.021 350.514 462.498C350.514 447.972 338.667 436.196 324.05 436.196L324.051 436.197ZM58.8599 476.543V519.172L138.343 598.159V642.475H153.997V571.089L58.8615 476.543H58.8599ZM416.861 537.443C403.107 537.443 391.956 548.525 391.956 562.194C391.956 575.864 403.107 586.948 416.861 586.948C420.207 586.948 423.397 586.287 426.31 585.099L456.986 615.58V593.58L438.22 574.932C440.549 571.087 441.776 566.683 441.77 562.195C441.77 548.526 430.617 537.443 416.861 537.443V537.443ZM58.8599 552.166V594.798L85.0739 620.847L85.0722 642.476H100.727L100.732 593.779L58.8599 552.166ZM370.391 583.631C356.636 583.631 345.484 594.713 345.484 608.383C345.484 622.053 356.634 633.133 370.39 633.133C373.333 633.133 376.155 632.624 378.775 631.693L389.627 642.474H411.767L391.177 622.013C393.869 617.971 395.302 613.23 395.296 608.383C395.296 594.711 384.145 583.629 370.39 583.629L370.391 583.631Z" fill="black"/>
<rect x="193" y="551" width="16" height="250" fill="black"/>
<rect x="389" y="57" width="16" height="278" fill="black"/>
<rect x="51" y="402" width="8.09524" height="42.5" fill="black"/>
<rect x="54" y="444" width="5" height="41" fill="black"/>
<path d="M497.223 276.188C456.343 222.545 397.331 185.664 331.24 172.452L320.392 226.842C373.264 237.411 420.474 266.917 453.178 309.831L497.223 276.188Z" fill="#5FBAFF"/>
<path d="M220.982 172.814C154.979 186.459 96.2092 223.726 55.6809 277.636L99.9448 310.989C132.367 267.861 179.383 238.047 232.185 227.131L220.982 172.814Z" fill="#5FBAFF"/>
<path d="M17.9231 542.534C-8.07369 473.744 -5.7103 397.433 24.4933 330.387L74.9947 353.19C50.8318 406.826 48.941 467.876 69.7385 522.908L17.9231 542.534Z" fill="#0090FC"/>
<path d="M220.319 715.85C154.373 702.048 95.7112 664.658 55.3155 610.678L99.6524 577.423C131.969 620.607 178.898 650.519 231.655 661.56L220.319 715.85Z" fill="#5FBAFF"/>
<path d="M481.719 631.213C436.459 680.925 374.694 712.474 307.927 719.984L301.741 664.868C355.155 658.86 404.567 633.62 440.775 593.851L481.719 631.213Z" fill="#5FBAFF"/>
<path d="M529.792 331.023C559.827 398.145 561.999 474.462 535.829 543.187L484.064 523.429C504.999 468.45 503.262 407.396 479.234 353.699L529.792 331.023Z" fill="#0090FC"/>
<ellipse cx="277.346" cy="190.309" rx="62.6713" ry="62.743" fill="#F2F9FF"/>
<path d="M264.569 198.836C264.569 188.177 268.296 179.117 275.749 171.655C283.202 164.193 292.252 160.463 302.899 160.463V168.99C294.595 168.99 287.55 171.885 281.767 177.675C275.98 183.468 273.087 190.522 273.087 198.836H264.569ZM281.605 198.836C281.605 192.938 283.682 187.91 287.836 183.751C291.987 179.596 297.008 177.518 302.899 177.518V186.045C299.35 186.045 296.334 187.289 293.849 189.776C291.365 192.263 290.123 195.283 290.123 198.836H281.605ZM247.534 164.726C245.192 164.726 243.186 163.891 241.516 162.219C239.85 160.551 239.016 158.544 239.016 156.199C239.016 153.854 239.85 151.846 241.516 150.174C243.186 148.506 245.192 147.671 247.534 147.671C249.876 147.671 251.881 148.506 253.547 150.174C255.217 151.846 256.052 153.854 256.052 156.199C256.052 158.544 255.217 160.551 253.547 162.219C251.881 163.891 249.876 164.726 247.534 164.726ZM234.757 186.045V175.386C234.757 173.609 235.379 172.1 236.623 170.858C237.863 169.613 239.371 168.99 241.146 168.99H253.922C257.116 168.99 259.868 167.977 262.176 165.95C264.481 163.926 265.918 161.386 266.486 158.331H275.004C274.578 162.595 273.016 166.361 270.319 169.63C267.622 172.899 264.286 175.173 260.311 176.452V186.045H234.757ZM307.158 211.628C304.816 211.628 302.81 210.793 301.14 209.125C299.474 207.453 298.64 205.445 298.64 203.1C298.64 200.755 299.474 198.747 301.14 197.075C302.81 195.407 304.816 194.573 307.158 194.573C309.501 194.573 311.507 195.407 313.176 197.075C314.843 198.747 315.676 200.755 315.676 203.1C315.676 205.445 314.843 207.453 313.176 209.125C311.507 210.793 309.501 211.628 307.158 211.628ZM294.382 232.946V223.353C290.407 222.074 287.071 219.8 284.373 216.531C281.676 213.262 280.114 209.496 279.688 205.232H288.206C288.774 208.288 290.211 210.829 292.516 212.856C294.824 214.88 297.576 215.891 300.77 215.891H313.547C315.321 215.891 316.829 216.514 318.069 217.759C319.313 219.001 319.935 220.51 319.935 222.287V232.946H294.382Z" fill="black"/>
<ellipse cx="72.3663" cy="295.689" rx="62.6713" ry="62.743" fill="white"/>
<path d="M119.802 267.999C116.348 269.497 112.692 270.483 108.952 270.927C112.883 268.632 115.839 264.984 117.266 260.67C113.549 262.837 109.49 264.358 105.262 265.167C103.481 263.306 101.34 261.825 98.968 260.815C96.596 259.805 94.0428 259.287 91.4637 259.292C81.0215 259.292 72.5711 267.597 72.5711 277.836C72.5637 279.26 72.7274 280.68 73.0585 282.065C65.5707 281.715 58.2387 279.81 51.5314 276.472C44.8242 273.134 38.8894 268.436 34.1068 262.679C32.429 265.5 31.5416 268.719 31.5376 271.999C31.5376 278.429 34.9012 284.113 39.9803 287.443C36.9711 287.372 34.0235 286.578 31.3879 285.128V285.357C31.3879 294.352 37.9118 301.835 46.5464 303.538C44.9227 303.97 43.2495 304.188 41.5691 304.189C40.3767 304.191 39.187 304.075 38.0173 303.844C40.4178 311.212 47.4041 316.571 55.6799 316.724C48.9552 321.893 40.6991 324.687 32.2091 324.666C30.7021 324.664 29.1966 324.574 27.7 324.398C36.3368 329.899 46.3765 332.808 56.624 332.78C91.4234 332.78 110.435 304.514 110.435 279.999C110.435 279.195 110.414 278.391 110.375 277.606C114.065 274.988 117.258 271.735 119.802 267.999Z" fill="#699BF7"/>
<ellipse cx="72.3663" cy="570.928" rx="62.6713" ry="62.743" fill="white"/>
<path d="M119.6 602.242L113.218 580.435V532.951C113.218 531.14 111.71 529.677 109.843 529.677H35.5823C33.7152 529.677 32.2068 531.14 32.2068 532.951V580.435L25.8251 602.242C25.0339 604.381 26.6584 606.632 29.0001 606.632H116.425C118.767 606.632 120.391 604.381 119.6 602.242ZM39.8017 537.045H105.623V577.467H39.8017V537.045ZM63.8836 599.264L64.738 595.478H80.5922L81.4466 599.264H63.8836ZM87.5119 599.264L85.4972 590.392C85.4128 590.013 85.0647 589.747 84.6744 589.747H60.6663C60.2655 589.747 59.9279 590.013 59.8436 590.392L57.8288 599.264H34.5908L39.0527 584.016H106.372L110.834 599.264H87.5119Z" fill="black"/>
<ellipse cx="276.654" cy="696.414" rx="62.6713" ry="62.743" fill="white"/>
<path d="M312.491 660.709H240.933C236.013 660.709 232.033 664.739 232.033 669.664L231.988 723.394C231.988 728.32 236.013 732.35 240.933 732.35H312.491C317.411 732.35 321.436 728.32 321.436 723.394V669.664C321.436 664.739 317.411 660.709 312.491 660.709ZM312.491 723.394H240.933V678.619L276.712 701.007L312.491 678.619V723.394ZM276.712 692.052L240.933 669.664H312.491L276.712 692.052Z" fill="black" fill-opacity="0.67"/>
<ellipse cx="482.327" cy="570.928" rx="62.6713" ry="62.743" fill="white"/>
<path d="M525.056 552.926C525.056 545.37 519.504 539.292 512.644 539.292C503.351 538.857 493.874 538.69 484.189 538.69H481.17C471.508 538.69 462.014 538.857 452.722 539.294C445.878 539.294 440.326 545.406 440.326 552.961C439.907 558.937 439.729 564.914 439.739 570.892C439.722 576.869 439.912 582.852 440.309 588.84C440.309 596.396 445.861 602.524 452.705 602.524C462.467 602.978 472.481 603.179 482.662 603.162C492.861 603.196 502.847 602.983 512.62 602.524C519.481 602.524 525.033 596.396 525.033 588.84C525.435 582.846 525.62 576.869 525.603 570.875C525.641 564.897 525.459 558.915 525.056 552.926ZM474.46 587.363V554.37L498.782 570.858L474.46 587.363Z" fill="#FF003D"/>
<ellipse cx="482.327" cy="295.689" rx="62.6713" ry="62.743" fill="white"/>
<path fill-rule="evenodd" clip-rule="evenodd" d="M513.588 265.053C509.554 261.013 504.763 257.811 499.488 255.633C494.214 253.454 488.561 252.341 482.856 252.359C458.911 252.359 439.419 271.776 439.41 295.646C439.399 303.247 441.4 310.715 445.21 317.29L439.045 339.714L462.076 333.694C468.452 337.152 475.588 338.961 482.838 338.959H482.856C506.798 338.959 526.289 319.54 526.3 295.672C526.315 289.979 525.198 284.34 523.016 279.084C520.834 273.827 517.629 269.058 513.588 265.053ZM482.856 331.653H482.84C476.377 331.655 470.031 329.923 464.462 326.638L463.144 325.858L449.477 329.43L453.125 316.153L452.266 314.788C448.652 309.06 446.737 302.422 446.744 295.646C446.744 275.81 462.951 259.671 482.87 259.671C492.425 259.654 501.595 263.437 508.365 270.189C515.134 276.94 518.947 286.107 518.965 295.674C518.958 315.512 502.759 331.653 482.856 331.653ZM502.662 304.707C501.577 304.165 496.234 301.549 495.245 301.188C494.256 300.827 493.525 300.646 492.803 301.73C492.08 302.814 489.998 305.24 489.365 305.971C488.732 306.702 488.099 306.782 487.014 306.24C485.929 305.698 482.429 304.557 478.283 300.872C475.056 298.004 472.878 294.463 472.245 293.38C471.612 292.298 472.177 291.711 472.72 291.173C473.209 290.688 473.805 289.91 474.349 289.278C474.892 288.646 475.073 288.194 475.433 287.472C475.794 286.751 475.615 286.119 475.344 285.579C475.073 285.039 472.901 279.714 471.998 277.547C471.115 275.438 470.221 275.724 469.555 275.691C468.922 275.66 468.192 275.652 467.473 275.652C466.924 275.666 466.383 275.794 465.885 276.027C465.387 276.26 464.943 276.593 464.579 277.005C463.584 278.089 460.779 280.71 460.779 286.029C460.779 291.349 464.675 296.496 465.212 297.218C465.75 297.939 472.866 308.864 483.756 313.55C485.778 314.417 487.844 315.177 489.945 315.828C492.545 316.65 494.912 316.535 496.782 316.256C498.868 315.946 503.209 313.64 504.111 311.113C505.012 308.586 505.014 306.421 504.744 305.971C504.473 305.52 503.748 305.247 502.662 304.707Z" fill="#2FED00"/>
<ellipse cx="200.479" cy="857.257" rx="62.6713" ry="62.743" fill="white"/>
<path d="M233.142 816.006C235.591 816.006 237.939 816.98 239.671 818.713C241.402 820.447 242.375 822.798 242.375 825.25V889.957C242.375 892.409 241.402 894.76 239.671 896.494C237.939 898.227 235.591 899.201 233.142 899.201H168.508C166.06 899.201 163.711 898.227 161.98 896.494C160.248 894.76 159.275 892.409 159.275 889.957V825.25C159.275 822.798 160.248 820.447 161.98 818.713C163.711 816.98 166.06 816.006 168.508 816.006H233.142ZM230.833 887.646V863.15C230.833 859.154 229.248 855.321 226.425 852.496C223.603 849.67 219.775 848.082 215.783 848.082C211.859 848.082 207.288 850.486 205.072 854.091V848.961H192.192V887.646H205.072V864.86C205.072 861.301 207.935 858.389 211.49 858.389C213.204 858.389 214.848 859.071 216.06 860.285C217.272 861.498 217.953 863.144 217.953 864.86V887.646H230.833ZM177.188 841.704C179.245 841.704 181.218 840.886 182.672 839.43C184.127 837.974 184.944 835.999 184.944 833.939C184.944 829.641 181.481 826.128 177.188 826.128C175.119 826.128 173.134 826.951 171.671 828.416C170.208 829.881 169.386 831.868 169.386 833.939C169.386 838.238 172.894 841.704 177.188 841.704ZM183.605 887.646V848.961H170.817V887.646H183.605Z" fill="#0077B5"/>
<ellipse cx="394.379" cy="62.743" rx="62.6713" ry="62.743" fill="#F2F9FF"/>
<path d="M394.379 11.786C387.513 11.786 380.714 13.1367 374.371 15.7612C368.027 18.3856 362.264 22.2322 357.409 27.0815C347.604 36.875 342.095 50.158 342.095 64.0081C342.095 87.0903 357.101 106.674 377.857 113.619C380.471 114.037 381.308 112.418 381.308 111.008V102.183C366.825 105.316 363.741 95.1848 363.741 95.1848C361.336 89.127 357.937 87.5081 357.937 87.5081C353.179 84.2703 358.303 84.3748 358.303 84.3748C363.532 84.7403 366.303 89.7537 366.303 89.7537C370.851 97.6914 378.537 95.3414 381.517 94.0881C381.988 90.6937 383.347 88.3959 384.811 87.0903C373.204 85.7848 361.022 81.2937 361.022 61.397C361.022 55.6004 363.009 50.9526 366.407 47.2448C365.884 45.9393 364.054 40.5082 366.93 33.4582C366.93 33.4582 371.322 32.0482 381.308 38.7848C385.438 37.6359 389.935 37.0615 394.379 37.0615C398.823 37.0615 403.319 37.6359 407.45 38.7848C417.436 32.0482 421.828 33.4582 421.828 33.4582C424.704 40.5082 422.874 45.9393 422.351 47.2448C425.749 50.9526 427.736 55.6004 427.736 61.397C427.736 81.3459 415.502 85.7325 403.842 87.0381C405.725 88.657 407.45 91.8425 407.45 96.6992V111.008C407.45 112.418 408.286 114.089 410.953 113.619C431.71 106.621 446.663 87.0903 446.663 64.0081C446.663 57.1502 445.31 50.3595 442.683 44.0236C440.055 37.6877 436.204 31.9308 431.349 27.0815C426.494 22.2322 420.73 18.3856 414.387 15.7612C408.044 13.1367 401.245 11.786 394.379 11.786Z" fill="black"/>
</svg>
