<svg width="800" height="1327" viewBox="0 0 800 1327" fill="none" xmlns="http://www.w3.org/2000/svg">
<circle cx="400" cy="636" r="400" fill="#3FACFF"/>
<path d="M562.026 356V474.445L506.243 529.821L464.876 488.755L456.884 496.692L285.697 666.621L423.006 802.921L359.167 866.29L359.17 926.701H381.774V875.586L438.99 818.79L464.876 844.486L644.049 666.622L571.271 594.379L652.857 513.386V356H630.253V504.092L555.286 578.51L522.225 545.69L584.629 483.741V356H562.026ZM84.9961 369.098V391.537H310.722L364.253 444.676C361.051 450.123 359.368 456.318 359.376 462.625C359.376 482.344 375.478 498.331 395.34 498.331C415.202 498.331 431.305 482.344 431.305 462.626C431.305 442.909 415.202 426.927 395.34 426.927C390.329 426.927 385.557 427.947 381.221 429.787L320.087 369.1H84.9961V369.098ZM84.9961 435.715V458.158L243.61 458.161L297.141 511.3C293.938 516.747 292.254 522.942 292.26 529.248C292.26 548.965 308.363 564.95 328.225 564.95C348.087 564.95 364.191 548.965 364.191 529.248C364.191 509.532 348.088 493.546 328.226 493.546C323.214 493.546 318.443 494.566 314.108 496.406L252.973 435.719H84.9985L84.9961 435.715ZM185.862 502.337L84.9973 502.339V524.782L176.501 524.778L230.032 577.924C226.83 583.371 225.146 589.565 225.154 595.871C225.154 615.588 241.256 631.574 261.118 631.574C280.981 631.574 297.081 615.588 297.081 595.87C297.081 576.153 280.981 560.166 261.118 560.166C256.104 560.166 251.332 561.187 246.996 563.028L185.862 502.337ZM464.876 520.492L612.081 666.623L464.876 812.746L317.669 666.623L464.876 520.495V520.492ZM463.359 553.379L348.959 666.942L463.889 781.034L479.874 765.167L380.93 666.943L479.346 569.245L463.359 553.379ZM84.9985 579.266V640.754L278.697 833.034V926.701H301.305V793.985L84.9985 579.266ZM504.148 589.349L488.166 605.216L550.438 667.034L487.815 729.198L503.804 745.066L582.409 667.034L504.151 589.347L504.148 589.349ZM467.944 629.166C446.835 629.166 429.729 646.154 429.729 667.104C429.729 688.051 446.837 705.036 467.941 705.036C489.049 705.036 506.157 688.051 506.157 667.104C506.157 646.15 489.049 629.165 467.942 629.165L467.944 629.166ZM84.9961 687.361V748.849L199.773 862.779V926.7H222.379V823.733L84.9985 687.361H84.9961ZM601.966 775.203C582.104 775.203 566.001 791.187 566.001 810.904C566.001 830.621 582.104 846.609 601.966 846.609C606.797 846.609 611.403 845.656 615.611 843.941L659.907 887.908L659.907 856.175L632.809 829.277C636.171 823.731 637.943 817.378 637.934 810.905C637.934 791.189 621.829 775.204 601.966 775.204V775.203ZM84.9961 796.44L84.9961 857.931L122.85 895.504L122.848 926.702H145.453L145.461 856.462L84.9961 796.44ZM534.86 841.824C514.998 841.824 498.894 857.809 498.894 877.527C498.894 897.244 514.995 913.226 534.859 913.226C539.109 913.226 543.184 912.491 546.968 911.149L562.638 926.699H594.609L564.876 897.186C568.764 891.356 570.833 884.517 570.824 877.526C570.824 857.807 554.721 841.822 534.859 841.822L534.86 841.824Z" fill="black"/>
<path d="M290 1150V925" stroke="black" stroke-width="22.5"/>
<path d="M573 291V181" stroke="black" stroke-width="22.5"/>
<rect x="76" y="579.75" width="9" height="61" fill="black"/>
<rect x="76" y="687.36" width="9" height="24" fill="black"/>
<path d="M718.012 398.371C658.979 320.998 573.762 267.8 478.325 248.743L462.66 327.195C539.01 342.44 607.183 384.998 654.409 446.897L718.012 398.371Z" fill="#5FBAFF"/>
<path d="M319.107 249.265C223.796 268.946 138.93 322.701 80.4057 400.46L144.325 448.568C191.144 386.361 259.037 343.357 335.286 327.612L319.107 249.265Z" fill="#5FBAFF"/>
<path d="M25.8817 782.547C-11.6588 683.325 -8.24592 573.253 35.3694 476.548L108.296 509.438C73.4033 586.803 70.673 674.86 100.705 754.237L25.8817 782.547Z" fill="#0090FC"/>
<path d="M318.15 1032.54C222.921 1012.63 138.211 958.697 79.878 880.837L143.902 832.87C190.569 895.158 258.337 938.303 334.52 954.229L318.15 1032.54Z" fill="#5FBAFF"/>
<path d="M695.624 910.456C630.266 982.161 541.074 1027.67 444.659 1038.5L435.727 958.999C512.859 950.333 584.213 913.929 636.499 856.565L695.624 910.456Z" fill="#5FBAFF"/>
<path d="M765.043 477.465C808.415 574.28 811.551 684.36 773.761 783.488L699.009 754.99C729.241 675.688 726.732 587.624 692.034 510.172L765.043 477.465Z" fill="#0090FC"/>
<circle cx="400.5" cy="274.5" r="90.5" fill="#F2F9FF"/>
<path d="M382.05 286.8C382.05 271.425 387.431 258.356 398.194 247.594C408.956 236.831 422.025 231.45 437.4 231.45V243.75C425.408 243.75 415.235 247.926 406.884 256.278C398.528 264.633 394.35 274.808 394.35 286.8H382.05ZM406.65 286.8C406.65 278.293 409.649 271.04 415.647 265.041C421.642 259.047 428.893 256.05 437.4 256.05V268.35C432.275 268.35 427.919 270.144 424.331 273.731C420.744 277.319 418.95 281.675 418.95 286.8H406.65ZM357.45 237.6C354.068 237.6 351.171 236.395 348.76 233.984C346.353 231.577 345.15 228.683 345.15 225.3C345.15 221.918 346.353 219.021 348.76 216.61C351.171 214.203 354.068 213 357.45 213C360.833 213 363.727 214.203 366.134 216.61C368.545 219.021 369.75 221.918 369.75 225.3C369.75 228.683 368.545 231.577 366.134 233.984C363.727 236.395 360.833 237.6 357.45 237.6ZM339 268.35V252.975C339 250.413 339.898 248.235 341.694 246.444C343.485 244.648 345.663 243.75 348.225 243.75H366.675C371.288 243.75 375.26 242.288 378.594 239.365C381.923 236.446 383.997 232.783 384.817 228.375H397.117C396.502 234.525 394.248 239.958 390.353 244.673C386.458 249.388 381.64 252.668 375.9 254.513V268.35H339ZM443.55 305.25C440.168 305.25 437.271 304.047 434.86 301.64C432.453 299.229 431.25 296.333 431.25 292.95C431.25 289.568 432.453 286.671 434.86 284.26C437.271 281.853 440.168 280.65 443.55 280.65C446.933 280.65 449.829 281.853 452.24 284.26C454.647 286.671 455.85 289.568 455.85 292.95C455.85 296.333 454.647 299.229 452.24 301.64C449.829 304.047 446.933 305.25 443.55 305.25ZM425.1 336V322.163C419.36 320.318 414.542 317.037 410.647 312.322C406.752 307.607 404.498 302.175 403.883 296.025H416.183C417.003 300.433 419.077 304.098 422.406 307.021C425.74 309.94 429.713 311.4 434.325 311.4H452.775C455.338 311.4 457.515 312.298 459.306 314.094C461.102 315.885 462 318.063 462 320.625V336H425.1Z" fill="black"/>
<circle cx="104.5" cy="426.5" r="90.5" fill="white"/>
<path d="M173 386.56C168.011 388.719 162.732 390.142 157.331 390.783C163.007 387.472 167.276 382.211 169.337 375.987C163.97 379.114 158.108 381.307 152.003 382.474C149.432 379.79 146.339 377.654 142.914 376.198C139.489 374.741 135.802 373.993 132.078 374C116.999 374 104.796 385.98 104.796 400.748C104.785 402.802 105.022 404.851 105.5 406.849C94.6871 406.344 84.0993 403.596 74.4137 398.781C64.7281 393.966 56.1581 387.19 49.2518 378.886C46.8289 382.955 45.5476 387.598 45.5417 392.329C45.5417 401.604 50.3989 409.802 57.7333 414.606C53.3879 414.503 49.1315 413.357 45.3255 411.265V411.597C45.3255 424.571 54.7464 435.364 67.2151 437.821C64.8704 438.443 62.4542 438.759 60.0276 438.759C58.3057 438.762 56.5878 438.596 54.8988 438.262C58.3651 448.89 68.4537 456.619 80.4043 456.84C70.6936 464.295 58.7713 468.325 46.5115 468.295C44.3353 468.292 42.1612 468.163 40 467.909C52.472 475.843 66.9698 480.04 81.7675 480C132.019 480 159.473 439.228 159.473 403.868C159.473 402.708 159.442 401.549 159.387 400.417C164.715 396.641 169.325 391.948 173 386.56Z" fill="#699BF7"/>
<circle cx="104.5" cy="823.501" r="90.5" fill="white"/>
<path d="M172.708 868.669L163.492 837.214V768.725C163.492 766.112 161.314 764.001 158.618 764.001H51.3823C48.6862 764.001 46.508 766.112 46.508 768.725V837.214L37.2924 868.669C36.15 871.754 38.4958 875.001 41.8774 875.001H168.123C171.504 875.001 173.85 871.754 172.708 868.669ZM57.4752 774.629H152.525V832.933H57.4752V774.629ZM92.2506 864.374L93.4844 858.912H116.379L117.612 864.374H92.2506ZM126.371 864.374L123.462 851.576C123.34 851.03 122.837 850.646 122.273 850.646H87.6047C87.0259 850.646 86.5385 851.03 86.4166 851.576L83.5072 864.374H49.9505L56.3937 842.38H153.606L160.05 864.374H126.371Z" fill="black"/>
<circle cx="399.5" cy="1004.5" r="90.5" fill="white"/>
<path d="M451.25 953.001H347.917C340.812 953.001 335.065 958.814 335.065 965.918L335 1043.42C335 1050.52 340.812 1056.33 347.917 1056.33H451.25C458.354 1056.33 464.167 1050.52 464.167 1043.42V965.918C464.167 958.814 458.354 953.001 451.25 953.001ZM451.25 1043.42H347.917V978.835L399.583 1011.13L451.25 978.835V1043.42ZM399.583 998.21L347.917 965.918H451.25L399.583 998.21Z" fill="black" fill-opacity="0.67"/>
<circle cx="696.5" cy="823.501" r="90.5" fill="white"/>
<path d="M758.203 797.536C758.203 786.638 750.186 777.871 740.279 777.871C726.86 777.243 713.175 777.001 699.189 777.001H694.829C680.878 777.001 667.168 777.243 653.749 777.873C643.867 777.873 635.849 786.688 635.849 797.587C635.244 806.206 634.987 814.827 635.001 823.449C634.977 832.071 635.252 840.7 635.825 849.338C635.825 860.236 643.842 869.076 653.725 869.076C667.822 869.73 682.282 870.02 696.985 869.996C711.712 870.045 726.132 869.738 740.245 869.076C750.152 869.076 758.169 860.236 758.169 849.338C758.751 840.692 759.017 832.071 758.993 823.425C759.048 814.803 758.785 806.174 758.203 797.536ZM685.141 847.207V799.618L720.262 823.401L685.141 847.207Z" fill="#FF003D"/>
<circle cx="696.5" cy="426.5" r="90.5" fill="white"/>
<path fill-rule="evenodd" clip-rule="evenodd" d="M741.643 382.309C735.818 376.482 728.899 371.864 721.282 368.722C713.666 365.58 705.503 363.975 697.264 364C662.687 364 634.54 392.007 634.526 426.438C634.511 437.401 637.401 448.173 642.902 457.656L634 490L667.258 481.318C676.464 486.305 686.769 488.915 697.239 488.911H697.264C731.838 488.911 759.983 460.902 760 426.474C760.021 418.263 758.409 410.13 755.257 402.548C752.106 394.966 747.478 388.086 741.643 382.309ZM697.264 478.373H697.242C687.908 478.376 678.744 475.878 670.703 471.139L668.799 470.014L649.064 475.167L654.332 456.017L653.091 454.048C647.872 445.785 645.107 436.21 645.118 426.438C645.118 397.826 668.521 374.547 697.284 374.547C711.082 374.522 724.325 379.979 734.1 389.718C743.875 399.456 749.381 412.679 749.408 426.477C749.397 455.091 726.005 478.373 697.264 478.373ZM725.865 439.507C724.298 438.725 716.583 434.951 715.155 434.431C713.726 433.91 712.671 433.649 711.628 435.213C710.584 436.776 707.578 440.275 706.664 441.33C705.75 442.384 704.836 442.5 703.269 441.718C701.702 440.936 696.648 439.291 690.661 433.975C686 429.838 682.856 424.73 681.942 423.169C681.028 421.608 681.843 420.762 682.628 419.986C683.334 419.285 684.195 418.163 684.979 417.252C685.764 416.341 686.026 415.688 686.546 414.648C687.066 413.607 686.807 412.696 686.416 411.917C686.026 411.138 682.89 403.457 681.585 400.332C680.311 397.289 679.02 397.702 678.058 397.654C677.144 397.609 676.089 397.598 675.051 397.598C674.258 397.619 673.477 397.803 672.758 398.139C672.039 398.475 671.397 398.955 670.872 399.55C669.435 401.114 665.385 404.894 665.385 412.566C665.385 420.239 671.01 427.664 671.786 428.704C672.562 429.745 682.839 445.503 698.564 452.262C701.484 453.512 704.467 454.609 707.502 455.547C711.256 456.734 714.674 456.568 717.374 456.166C720.386 455.718 726.655 452.391 727.957 448.746C729.259 445.101 729.262 441.979 728.871 441.33C728.48 440.68 727.434 440.286 725.865 439.507Z" fill="#2FED00"/>
<circle cx="289.5" cy="1236.5" r="90.5" fill="white"/>
<path d="M336.667 1177C340.203 1177 343.594 1178.4 346.095 1180.91C348.595 1183.41 350 1186.8 350 1190.33V1283.67C350 1287.2 348.595 1290.59 346.095 1293.09C343.594 1295.6 340.203 1297 336.667 1297H243.333C239.797 1297 236.406 1295.6 233.905 1293.09C231.405 1290.59 230 1287.2 230 1283.67V1190.33C230 1186.8 231.405 1183.41 233.905 1180.91C236.406 1178.4 239.797 1177 243.333 1177H336.667ZM333.333 1280.33V1245C333.333 1239.24 331.044 1233.71 326.968 1229.63C322.892 1225.56 317.364 1223.27 311.6 1223.27C305.933 1223.27 299.333 1226.73 296.133 1231.93V1224.53H277.533V1280.33H296.133V1247.47C296.133 1242.33 300.267 1238.13 305.4 1238.13C307.875 1238.13 310.249 1239.12 312 1240.87C313.75 1242.62 314.733 1244.99 314.733 1247.47V1280.33H333.333ZM255.867 1214.07C258.837 1214.07 261.686 1212.89 263.786 1210.79C265.887 1208.69 267.067 1205.84 267.067 1202.87C267.067 1196.67 262.067 1191.6 255.867 1191.6C252.879 1191.6 250.013 1192.79 247.9 1194.9C245.787 1197.01 244.6 1199.88 244.6 1202.87C244.6 1209.07 249.667 1214.07 255.867 1214.07ZM265.133 1280.33V1224.53H246.667V1280.33H265.133Z" fill="#0077B5"/>
<circle cx="569.5" cy="90.5" r="90.5" fill="#F2F9FF"/>
<path d="M569.5 17C559.585 17 549.767 18.9483 540.607 22.7338C531.447 26.5192 523.124 32.0676 516.113 39.0621C501.954 53.1883 494 72.3474 494 92.3248C494 125.618 515.669 153.865 545.642 163.883C549.417 164.486 550.625 162.151 550.625 160.117V147.387C529.712 151.907 525.257 137.294 525.257 137.294C521.784 128.556 516.877 126.221 516.877 126.221C510.006 121.551 517.405 121.701 517.405 121.701C524.955 122.229 528.957 129.46 528.957 129.46C535.525 140.909 546.624 137.52 550.927 135.712C551.607 130.816 553.57 127.501 555.684 125.618C538.923 123.735 521.331 117.257 521.331 88.5585C521.331 80.1975 524.2 73.4936 529.108 68.1455C528.353 66.2624 525.71 58.4286 529.863 48.2598C529.863 48.2598 536.205 46.226 550.625 55.9429C556.59 54.2858 563.083 53.4572 569.5 53.4572C575.918 53.4572 582.411 54.2858 588.375 55.9429C602.796 46.226 609.138 48.2598 609.138 48.2598C613.29 58.4286 610.648 66.2624 609.893 68.1455C614.8 73.4936 617.669 80.1975 617.669 88.5585C617.669 117.333 600.002 123.66 583.166 125.543C585.884 127.878 588.375 132.473 588.375 139.478V160.117C588.375 162.151 589.583 164.561 593.434 163.883C623.407 153.79 645 125.618 645 92.3248C645 82.433 643.047 72.6381 639.253 63.4992C635.459 54.3604 629.897 46.0567 622.887 39.0621C615.876 32.0676 607.553 26.5192 598.393 22.7338C589.233 18.9483 579.415 17 569.5 17Z" fill="black"/>
</svg>
