<svg width="466" height="575" viewBox="0 0 466 575" fill="none" xmlns="http://www.w3.org/2000/svg">
<g filter="url(#filter0_d_104_1137)">
<path d="M232.524 554.923H225.712C223.441 554.923 221.397 554.468 219.581 553.56C160.085 534.935 111.035 498.02 72.4306 442.816C33.8264 387.631 14.5244 326.648 14.5244 259.87V131.082C14.5244 119.725 17.8216 109.504 24.4161 100.418C30.9924 91.3328 39.5035 84.7457 49.9494 80.6572L213.449 19.3298C219.808 17.0584 226.166 15.9227 232.524 15.9227C238.883 15.9227 245.241 17.0584 251.599 19.3298L415.099 80.6572C425.545 84.7457 434.065 91.3328 440.66 100.418C447.236 109.504 450.524 119.725 450.524 131.082V259.87C450.524 326.648 431.222 387.631 392.618 442.816C354.014 498.02 304.964 534.935 245.468 553.56C243.197 554.468 238.883 554.923 232.524 554.923Z" fill="#ED1C23"/>
<path d="M48.1934 75.9757L48.1601 75.9882L48.127 76.0012C36.7897 80.4386 27.5059 87.6232 20.3677 97.4839C13.147 107.433 9.52436 118.684 9.52436 131.082V259.87C9.52436 327.683 29.147 389.664 68.3335 445.682C107.441 501.605 157.256 539.203 217.735 558.221C220.217 559.385 222.905 559.923 225.712 559.923H232.524C238.683 559.923 243.831 559.531 247.122 558.281C307.687 539.282 357.567 501.664 396.716 445.682C435.902 389.664 455.524 327.683 455.524 259.87V131.082C455.524 118.686 451.912 107.436 444.71 97.4866L444.706 97.4813C437.551 87.6225 428.259 80.4385 416.922 76.0012L416.889 75.9882L416.855 75.9757L253.355 14.6483L253.318 14.6345L253.281 14.6212C246.417 12.169 239.491 10.9227 232.524 10.9227C225.558 10.9227 218.632 12.169 211.767 14.6212L211.73 14.6345L211.693 14.6483L48.1934 75.9757Z" stroke="black" stroke-width="10"/>
</g>
<g filter="url(#filter1_d_104_1137)">
<path fill-rule="evenodd" clip-rule="evenodd" d="M315 43.0097L252.075 19.4071C245.717 17.1357 239.358 16 233 16C226.642 16 220.283 17.1357 213.925 19.4071L151 43.0097V520.745C172.198 534.897 195.217 545.861 220.056 553.637C221.873 554.546 223.917 555 226.187 555H233C239.358 555 243.673 554.546 245.944 553.637C270.783 545.861 293.802 534.897 315 520.745V43.0097Z" fill="white"/>
</g>
<g filter="url(#filter2_i_104_1137)">
<mask id="path-4-outside-1_104_1137" maskUnits="userSpaceOnUse" x="39" y="66" width="386" height="386" fill="black">
<rect fill="white" x="39" y="66" width="386" height="386"/>
<path d="M198.339 79.7417C192.126 87.3561 177.459 97.9713 174.131 105.211C170.804 112.487 160.109 119.914 154.405 122.615C148.667 125.316 153.692 129.667 159.939 125.353C166.22 121.039 171.415 121.227 175.082 117.326C178.749 113.425 184.045 117.139 178.885 119.802C173.758 122.502 171.788 127.003 169.548 130.229C167.307 133.493 166.186 135.105 160.992 135.218C155.797 135.331 151.179 136.718 147.546 142.57C143.879 148.384 139.398 155.21 137.462 158.436C135.493 161.662 136.987 164.213 141.842 160.237C146.664 156.261 152.096 152.96 154.507 157.386C156.917 161.775 156.815 163.875 150.364 166.726C136.614 172.802 132.641 176.403 130.163 182.517C127.684 188.669 129.144 190.544 120.554 193.583C111.93 196.658 98.0094 207.874 88.9101 215.413C79.8108 222.99 85.0055 223.365 91.9658 222.99C102.627 222.39 116.344 214.4 123.338 217.776C125.443 222.202 127.888 227.866 131.147 231.955C119.909 249.434 118.041 256.186 106.498 256.486C94.9197 256.786 87.6878 269.726 82.3233 276.216C76.9588 282.742 72.3072 288.894 66.739 291.594C61.8498 293.957 60.7634 295.908 64.5661 298.009C68.3688 300.184 71.73 295.008 75.2272 296.808C78.7243 298.646 81.0331 297.971 86.4315 293.995C91.83 290.019 97.5341 284.768 106.158 283.605C110.3 288.931 112.405 291.782 117.091 294.52C108.942 306.823 96.7192 316.388 86.092 320.477C75.4649 324.528 73.8351 329.029 66.2297 339.756C58.6583 350.484 58.9978 353.972 51.2227 354.16C43.4136 354.385 43.7531 356.298 47.8613 359.674C51.9696 363.087 55.1272 361.437 61.2048 362.9C67.3162 364.325 75.1253 365.75 83.0363 356.298C90.9472 346.808 110.334 330.304 126.767 331.917C134.576 332.705 140.111 334.468 130.774 344.258C121.437 354.047 107.958 361.549 98.7903 363.537C80.9652 367.513 73.2919 375.353 68.0971 375.128C62.8684 374.903 58.0471 378.879 65.9581 384.092C73.8691 389.344 76.4834 390.582 85.3451 386.193C94.2067 381.842 108.772 374.453 114.544 372.765C120.282 371.002 124.56 368.338 128.635 369.539C132.709 370.702 135.867 369.314 140.416 366.05C144.966 362.75 151.621 362.299 157.257 356.411C163.844 349.546 170.838 355.435 175.218 359.449C179.632 363.5 188.323 379.554 180.48 390.619C172.603 401.647 163.877 413.35 161.093 419.164C158.309 424.978 156.747 425.353 153.454 426.665C144.718 430.327 136.462 435.259 128.906 441.332C125.783 444.257 126.971 445.195 131.317 446.058C135.663 446.921 136.24 445.945 140.179 442.344C144.151 438.744 148.972 433.23 158.785 433.567C163.979 433.755 168.257 430.491 172.773 425.24C177.323 420.026 187.033 415.338 191.956 416.463C196.879 417.626 198.305 416.35 201.157 413.987C203.976 411.699 206.284 410.687 210.698 414.738C215.112 418.789 218.847 418.038 223.43 415.075C228.014 412.074 232.937 413.237 234.159 416.425C235.348 419.576 235.993 422.427 240.101 425.54C244.209 428.616 258.843 438.181 263.528 440.957C268.18 443.695 271.27 438.518 267.739 435.105C264.208 431.692 262.408 428.841 262.951 425.953C263.495 423.065 266.177 421.902 274.122 423.102C286.582 425.053 304.407 434.843 310.858 439.119C317.343 443.47 323.183 447.146 328.378 446.996C333.607 446.883 335.27 445.533 330.585 440.844C325.832 436.193 320.094 436.68 317.955 431.917C314.322 423.702 308.04 429.629 304.747 421.377C302.404 415.488 299.145 414.775 295.104 415.188C291.064 415.6 285.666 411.587 281.931 405.285C268.757 383.267 265.192 363.575 269.504 348.759C273.85 333.98 286.447 329.516 293.814 335.743C301.182 341.969 309.874 345.87 313.643 345.458C317.745 344.735 321.947 345.653 325.492 348.046C330.483 351.122 338.937 353.147 349.225 348.421C359.513 343.695 363.146 347.408 369.698 347.633C375.233 347.783 381.853 348.909 386.335 352.96C390.715 357.011 397.438 359.711 407.556 361.399C417.673 363.087 424.566 360.011 416.383 354.798C408.133 349.584 401.206 346.546 398.185 341.819C395.231 337.093 390.851 336.268 386.539 336.343C382.227 336.456 375.199 333.117 369.325 326.591C363.417 319.989 358.732 318.826 354.148 319.576C351.756 320.036 349.297 319.807 347.008 318.914C344.719 318.021 342.676 316.492 341.076 314.475C345.524 308.624 350.311 297.671 354.522 294.37C356.861 294.072 359.232 294.314 361.482 295.083C363.733 295.851 365.814 297.129 367.593 298.834C371.158 302.247 376.047 301.497 379.545 301.422C383.568 301.579 387.481 302.912 390.885 305.285C393.839 307.461 398.456 307.348 402.734 305.323C406.978 303.335 406.062 300.784 400.833 297.408C395.536 294.033 392.582 291.857 390.783 288.669C389.051 285.555 387.523 283.98 381.174 284.13C374.825 284.28 371.803 280.867 366.812 274.903C355.54 261.474 348.07 260.687 340.805 261.774C333.607 262.9 326.443 264.363 320.467 254.948C327.869 250.934 333.912 260.162 343.521 252.172C348.648 247.896 352.043 246.846 358.494 249.246C364.911 251.647 372.415 250.822 374.35 249.171C376.387 247.521 378.967 244.895 382.125 244.52C385.215 244.108 384.841 239.494 380.224 240.094C371.294 241.257 369.732 235.218 361.108 237.056C352.484 238.856 349.327 237.356 343.725 233.005C338.122 228.654 333.437 224.94 317.038 227.904C317.785 222.127 317.343 216.088 325.424 214.288C331.536 218.301 337.274 217.514 342.197 217.401C347.12 217.288 363.892 217.176 368.782 218.039C373.773 218.864 374.825 216.276 367.491 212C360.743 208.499 353.469 206.401 346.033 205.811C342.265 205.586 340.431 202.772 338.021 197.371C335.61 192.007 328.344 187.731 317.615 187.656C310.356 187.512 303.407 184.382 298.126 178.879C293.678 174.528 289.604 171.077 284.375 170.252C279.147 169.427 274.427 165.376 276.668 160.537C278.875 155.698 287.499 153.598 293.678 157.874C299.79 162.225 303.593 162.412 307.259 160.087C310.96 157.761 313.303 156.748 318.837 158.849C324.338 160.949 329.872 160.799 321.316 153.673C308.991 143.433 296.904 147.559 292.762 141.932C288.619 136.268 285.19 138.594 282.338 139.944C279.452 141.295 274.291 138.144 280.471 134.543C285.054 131.88 289.638 130.492 293.746 132.63C295.664 133.537 297.734 133.979 299.819 133.927C301.904 133.875 303.955 133.331 305.833 132.33C309.025 130.642 312.115 127.416 302.54 125.391C292.965 123.365 278.4 117.026 272.764 111.4C270.615 109.069 267.993 107.34 265.117 106.355C262.241 105.37 259.194 105.157 256.229 105.736C251.339 106.823 247.299 107.536 238.811 101.685C230.323 95.8332 219.22 90.0193 211.479 78.0913C203.874 66.5384 203.161 73.9278 198.339 79.7417Z"/>
</mask>
<path d="M198.339 79.7417C192.126 87.3561 177.459 97.9713 174.131 105.211C170.804 112.487 160.109 119.914 154.405 122.615C148.667 125.316 153.692 129.667 159.939 125.353C166.22 121.039 171.415 121.227 175.082 117.326C178.749 113.425 184.045 117.139 178.885 119.802C173.758 122.502 171.788 127.003 169.548 130.229C167.307 133.493 166.186 135.105 160.992 135.218C155.797 135.331 151.179 136.718 147.546 142.57C143.879 148.384 139.398 155.21 137.462 158.436C135.493 161.662 136.987 164.213 141.842 160.237C146.664 156.261 152.096 152.96 154.507 157.386C156.917 161.775 156.815 163.875 150.364 166.726C136.614 172.802 132.641 176.403 130.163 182.517C127.684 188.669 129.144 190.544 120.554 193.583C111.93 196.658 98.0094 207.874 88.9101 215.413C79.8108 222.99 85.0055 223.365 91.9658 222.99C102.627 222.39 116.344 214.4 123.338 217.776C125.443 222.202 127.888 227.866 131.147 231.955C119.909 249.434 118.041 256.186 106.498 256.486C94.9197 256.786 87.6878 269.726 82.3233 276.216C76.9588 282.742 72.3072 288.894 66.739 291.594C61.8498 293.957 60.7634 295.908 64.5661 298.009C68.3688 300.184 71.73 295.008 75.2272 296.808C78.7243 298.646 81.0331 297.971 86.4315 293.995C91.83 290.019 97.5341 284.768 106.158 283.605C110.3 288.931 112.405 291.782 117.091 294.52C108.942 306.823 96.7192 316.388 86.092 320.477C75.4649 324.528 73.8351 329.029 66.2297 339.756C58.6583 350.484 58.9978 353.972 51.2227 354.16C43.4136 354.385 43.7531 356.298 47.8613 359.674C51.9696 363.087 55.1272 361.437 61.2048 362.9C67.3162 364.325 75.1253 365.75 83.0363 356.298C90.9472 346.808 110.334 330.304 126.767 331.917C134.576 332.705 140.111 334.468 130.774 344.258C121.437 354.047 107.958 361.549 98.7903 363.537C80.9652 367.513 73.2919 375.353 68.0971 375.128C62.8684 374.903 58.0471 378.879 65.9581 384.092C73.8691 389.344 76.4834 390.582 85.3451 386.193C94.2067 381.842 108.772 374.453 114.544 372.765C120.282 371.002 124.56 368.338 128.635 369.539C132.709 370.702 135.867 369.314 140.416 366.05C144.966 362.75 151.621 362.299 157.257 356.411C163.844 349.546 170.838 355.435 175.218 359.449C179.632 363.5 188.323 379.554 180.48 390.619C172.603 401.647 163.877 413.35 161.093 419.164C158.309 424.978 156.747 425.353 153.454 426.665C144.718 430.327 136.462 435.259 128.906 441.332C125.783 444.257 126.971 445.195 131.317 446.058C135.663 446.921 136.24 445.945 140.179 442.344C144.151 438.744 148.972 433.23 158.785 433.567C163.979 433.755 168.257 430.491 172.773 425.24C177.323 420.026 187.033 415.338 191.956 416.463C196.879 417.626 198.305 416.35 201.157 413.987C203.976 411.699 206.284 410.687 210.698 414.738C215.112 418.789 218.847 418.038 223.43 415.075C228.014 412.074 232.937 413.237 234.159 416.425C235.348 419.576 235.993 422.427 240.101 425.54C244.209 428.616 258.843 438.181 263.528 440.957C268.18 443.695 271.27 438.518 267.739 435.105C264.208 431.692 262.408 428.841 262.951 425.953C263.495 423.065 266.177 421.902 274.122 423.102C286.582 425.053 304.407 434.843 310.858 439.119C317.343 443.47 323.183 447.146 328.378 446.996C333.607 446.883 335.27 445.533 330.585 440.844C325.832 436.193 320.094 436.68 317.955 431.917C314.322 423.702 308.04 429.629 304.747 421.377C302.404 415.488 299.145 414.775 295.104 415.188C291.064 415.6 285.666 411.587 281.931 405.285C268.757 383.267 265.192 363.575 269.504 348.759C273.85 333.98 286.447 329.516 293.814 335.743C301.182 341.969 309.874 345.87 313.643 345.458C317.745 344.735 321.947 345.653 325.492 348.046C330.483 351.122 338.937 353.147 349.225 348.421C359.513 343.695 363.146 347.408 369.698 347.633C375.233 347.783 381.853 348.909 386.335 352.96C390.715 357.011 397.438 359.711 407.556 361.399C417.673 363.087 424.566 360.011 416.383 354.798C408.133 349.584 401.206 346.546 398.185 341.819C395.231 337.093 390.851 336.268 386.539 336.343C382.227 336.456 375.199 333.117 369.325 326.591C363.417 319.989 358.732 318.826 354.148 319.576C351.756 320.036 349.297 319.807 347.008 318.914C344.719 318.021 342.676 316.492 341.076 314.475C345.524 308.624 350.311 297.671 354.522 294.37C356.861 294.072 359.232 294.314 361.482 295.083C363.733 295.851 365.814 297.129 367.593 298.834C371.158 302.247 376.047 301.497 379.545 301.422C383.568 301.579 387.481 302.912 390.885 305.285C393.839 307.461 398.456 307.348 402.734 305.323C406.978 303.335 406.062 300.784 400.833 297.408C395.536 294.033 392.582 291.857 390.783 288.669C389.051 285.555 387.523 283.98 381.174 284.13C374.825 284.28 371.803 280.867 366.812 274.903C355.54 261.474 348.07 260.687 340.805 261.774C333.607 262.9 326.443 264.363 320.467 254.948C327.869 250.934 333.912 260.162 343.521 252.172C348.648 247.896 352.043 246.846 358.494 249.246C364.911 251.647 372.415 250.822 374.35 249.171C376.387 247.521 378.967 244.895 382.125 244.52C385.215 244.108 384.841 239.494 380.224 240.094C371.294 241.257 369.732 235.218 361.108 237.056C352.484 238.856 349.327 237.356 343.725 233.005C338.122 228.654 333.437 224.94 317.038 227.904C317.785 222.127 317.343 216.088 325.424 214.288C331.536 218.301 337.274 217.514 342.197 217.401C347.12 217.288 363.892 217.176 368.782 218.039C373.773 218.864 374.825 216.276 367.491 212C360.743 208.499 353.469 206.401 346.033 205.811C342.265 205.586 340.431 202.772 338.021 197.371C335.61 192.007 328.344 187.731 317.615 187.656C310.356 187.512 303.407 184.382 298.126 178.879C293.678 174.528 289.604 171.077 284.375 170.252C279.147 169.427 274.427 165.376 276.668 160.537C278.875 155.698 287.499 153.598 293.678 157.874C299.79 162.225 303.593 162.412 307.259 160.087C310.96 157.761 313.303 156.748 318.837 158.849C324.338 160.949 329.872 160.799 321.316 153.673C308.991 143.433 296.904 147.559 292.762 141.932C288.619 136.268 285.19 138.594 282.338 139.944C279.452 141.295 274.291 138.144 280.471 134.543C285.054 131.88 289.638 130.492 293.746 132.63C295.664 133.537 297.734 133.979 299.819 133.927C301.904 133.875 303.955 133.331 305.833 132.33C309.025 130.642 312.115 127.416 302.54 125.391C292.965 123.365 278.4 117.026 272.764 111.4C270.615 109.069 267.993 107.34 265.117 106.355C262.241 105.37 259.194 105.157 256.229 105.736C251.339 106.823 247.299 107.536 238.811 101.685C230.323 95.8332 219.22 90.0193 211.479 78.0913C203.874 66.5384 203.161 73.9278 198.339 79.7417Z" fill="#008000"/>
<path d="M198.339 79.7417C192.126 87.3561 177.459 97.9713 174.131 105.211C170.804 112.487 160.109 119.914 154.405 122.615C148.667 125.316 153.692 129.667 159.939 125.353C166.22 121.039 171.415 121.227 175.082 117.326C178.749 113.425 184.045 117.139 178.885 119.802C173.758 122.502 171.788 127.003 169.548 130.229C167.307 133.493 166.186 135.105 160.992 135.218C155.797 135.331 151.179 136.718 147.546 142.57C143.879 148.384 139.398 155.21 137.462 158.436C135.493 161.662 136.987 164.213 141.842 160.237C146.664 156.261 152.096 152.96 154.507 157.386C156.917 161.775 156.815 163.875 150.364 166.726C136.614 172.802 132.641 176.403 130.163 182.517C127.684 188.669 129.144 190.544 120.554 193.583C111.93 196.658 98.0094 207.874 88.9101 215.413C79.8108 222.99 85.0055 223.365 91.9658 222.99C102.627 222.39 116.344 214.4 123.338 217.776C125.443 222.202 127.888 227.866 131.147 231.955C119.909 249.434 118.041 256.186 106.498 256.486C94.9197 256.786 87.6878 269.726 82.3233 276.216C76.9588 282.742 72.3072 288.894 66.739 291.594C61.8498 293.957 60.7634 295.908 64.5661 298.009C68.3688 300.184 71.73 295.008 75.2272 296.808C78.7243 298.646 81.0331 297.971 86.4315 293.995C91.83 290.019 97.5341 284.768 106.158 283.605C110.3 288.931 112.405 291.782 117.091 294.52C108.942 306.823 96.7192 316.388 86.092 320.477C75.4649 324.528 73.8351 329.029 66.2297 339.756C58.6583 350.484 58.9978 353.972 51.2227 354.16C43.4136 354.385 43.7531 356.298 47.8613 359.674C51.9696 363.087 55.1272 361.437 61.2048 362.9C67.3162 364.325 75.1253 365.75 83.0363 356.298C90.9472 346.808 110.334 330.304 126.767 331.917C134.576 332.705 140.111 334.468 130.774 344.258C121.437 354.047 107.958 361.549 98.7903 363.537C80.9652 367.513 73.2919 375.353 68.0971 375.128C62.8684 374.903 58.0471 378.879 65.9581 384.092C73.8691 389.344 76.4834 390.582 85.3451 386.193C94.2067 381.842 108.772 374.453 114.544 372.765C120.282 371.002 124.56 368.338 128.635 369.539C132.709 370.702 135.867 369.314 140.416 366.05C144.966 362.75 151.621 362.299 157.257 356.411C163.844 349.546 170.838 355.435 175.218 359.449C179.632 363.5 188.323 379.554 180.48 390.619C172.603 401.647 163.877 413.35 161.093 419.164C158.309 424.978 156.747 425.353 153.454 426.665C144.718 430.327 136.462 435.259 128.906 441.332C125.783 444.257 126.971 445.195 131.317 446.058C135.663 446.921 136.24 445.945 140.179 442.344C144.151 438.744 148.972 433.23 158.785 433.567C163.979 433.755 168.257 430.491 172.773 425.24C177.323 420.026 187.033 415.338 191.956 416.463C196.879 417.626 198.305 416.35 201.157 413.987C203.976 411.699 206.284 410.687 210.698 414.738C215.112 418.789 218.847 418.038 223.43 415.075C228.014 412.074 232.937 413.237 234.159 416.425C235.348 419.576 235.993 422.427 240.101 425.54C244.209 428.616 258.843 438.181 263.528 440.957C268.18 443.695 271.27 438.518 267.739 435.105C264.208 431.692 262.408 428.841 262.951 425.953C263.495 423.065 266.177 421.902 274.122 423.102C286.582 425.053 304.407 434.843 310.858 439.119C317.343 443.47 323.183 447.146 328.378 446.996C333.607 446.883 335.27 445.533 330.585 440.844C325.832 436.193 320.094 436.68 317.955 431.917C314.322 423.702 308.04 429.629 304.747 421.377C302.404 415.488 299.145 414.775 295.104 415.188C291.064 415.6 285.666 411.587 281.931 405.285C268.757 383.267 265.192 363.575 269.504 348.759C273.85 333.98 286.447 329.516 293.814 335.743C301.182 341.969 309.874 345.87 313.643 345.458C317.745 344.735 321.947 345.653 325.492 348.046C330.483 351.122 338.937 353.147 349.225 348.421C359.513 343.695 363.146 347.408 369.698 347.633C375.233 347.783 381.853 348.909 386.335 352.96C390.715 357.011 397.438 359.711 407.556 361.399C417.673 363.087 424.566 360.011 416.383 354.798C408.133 349.584 401.206 346.546 398.185 341.819C395.231 337.093 390.851 336.268 386.539 336.343C382.227 336.456 375.199 333.117 369.325 326.591C363.417 319.989 358.732 318.826 354.148 319.576C351.756 320.036 349.297 319.807 347.008 318.914C344.719 318.021 342.676 316.492 341.076 314.475C345.524 308.624 350.311 297.671 354.522 294.37C356.861 294.072 359.232 294.314 361.482 295.083C363.733 295.851 365.814 297.129 367.593 298.834C371.158 302.247 376.047 301.497 379.545 301.422C383.568 301.579 387.481 302.912 390.885 305.285C393.839 307.461 398.456 307.348 402.734 305.323C406.978 303.335 406.062 300.784 400.833 297.408C395.536 294.033 392.582 291.857 390.783 288.669C389.051 285.555 387.523 283.98 381.174 284.13C374.825 284.28 371.803 280.867 366.812 274.903C355.54 261.474 348.07 260.687 340.805 261.774C333.607 262.9 326.443 264.363 320.467 254.948C327.869 250.934 333.912 260.162 343.521 252.172C348.648 247.896 352.043 246.846 358.494 249.246C364.911 251.647 372.415 250.822 374.35 249.171C376.387 247.521 378.967 244.895 382.125 244.52C385.215 244.108 384.841 239.494 380.224 240.094C371.294 241.257 369.732 235.218 361.108 237.056C352.484 238.856 349.327 237.356 343.725 233.005C338.122 228.654 333.437 224.94 317.038 227.904C317.785 222.127 317.343 216.088 325.424 214.288C331.536 218.301 337.274 217.514 342.197 217.401C347.12 217.288 363.892 217.176 368.782 218.039C373.773 218.864 374.825 216.276 367.491 212C360.743 208.499 353.469 206.401 346.033 205.811C342.265 205.586 340.431 202.772 338.021 197.371C335.61 192.007 328.344 187.731 317.615 187.656C310.356 187.512 303.407 184.382 298.126 178.879C293.678 174.528 289.604 171.077 284.375 170.252C279.147 169.427 274.427 165.376 276.668 160.537C278.875 155.698 287.499 153.598 293.678 157.874C299.79 162.225 303.593 162.412 307.259 160.087C310.96 157.761 313.303 156.748 318.837 158.849C324.338 160.949 329.872 160.799 321.316 153.673C308.991 143.433 296.904 147.559 292.762 141.932C288.619 136.268 285.19 138.594 282.338 139.944C279.452 141.295 274.291 138.144 280.471 134.543C285.054 131.88 289.638 130.492 293.746 132.63C295.664 133.537 297.734 133.979 299.819 133.927C301.904 133.875 303.955 133.331 305.833 132.33C309.025 130.642 312.115 127.416 302.54 125.391C292.965 123.365 278.4 117.026 272.764 111.4C270.615 109.069 267.993 107.34 265.117 106.355C262.241 105.37 259.194 105.157 256.229 105.736C251.339 106.823 247.299 107.536 238.811 101.685C230.323 95.8332 219.22 90.0193 211.479 78.0913C203.874 66.5384 203.161 73.9278 198.339 79.7417Z" stroke="black" stroke-width="10" mask="url(#path-4-outside-1_104_1137)"/>
<g filter="url(#filter3_d_104_1137)">
<path d="M169.8 147.256C164.184 146.506 159.624 149.393 162.551 153.63C165.444 157.867 166.941 155.205 170.583 153.218C174.224 151.193 177.628 148.231 169.8 147.256ZM185.285 160.753C180.146 163.49 175.177 166.752 173.578 172.526C171.944 178.3 172.148 183.399 177.015 182.011C184.367 179.912 184.843 170.351 190.22 169.264C188.451 166.415 187.94 162.591 185.285 160.753ZM194.304 155.729C194.781 158.091 195.496 161.916 197.265 163.79C201.996 161.278 214.044 156.217 218.605 155.13C218.913 152.399 218.399 149.633 217.141 147.256C210.641 147.931 201.145 150.518 194.304 155.729ZM234.839 178.262C234.907 181.786 236.268 190.672 236.915 194.196C239.842 195.733 243.62 196.896 246.547 197.795C248.262 193.344 249.064 188.531 248.895 183.698C243.586 179.987 238.855 175.975 234.839 178.262ZM224.527 183.324C224.867 186.173 224.969 190.335 225.31 192.884C221.532 192.959 215.508 195.358 211.764 196.708C208.02 198.095 203.528 190.522 210.13 187.523C216.733 184.486 221.055 183.736 224.527 183.324ZM131.852 212.042C138.693 208.031 142.266 210.543 148.563 208.443C151.524 211.555 155.063 215.304 157.446 219.053C153.804 225.839 142.709 221.34 138.999 224.302C135.951 220.736 133.528 216.579 131.852 212.042ZM159.794 204.319C161.598 208.443 163.436 211.892 164.899 213.767C170.106 214.292 172.08 211.068 174.327 207.168C176.573 203.269 176.471 198.508 170.685 198.958C164.899 199.445 161.734 200.795 159.794 204.319ZM114.631 277.841C116.162 281.927 120.519 283.427 121.744 286.614C126.577 283.315 128.925 283.577 133.009 284.439C137.093 285.264 148.018 281.178 154.246 274.017C160.475 266.856 156.425 267.605 149.209 268.73C141.994 269.855 136.515 271.28 131.58 270.117C128.386 269.626 125.132 270.082 122.152 271.44C119.172 272.798 116.576 275.007 114.631 277.841ZM178.547 244.398C175.109 246.722 173.408 248.335 176.096 251.784C178.785 255.233 180.18 253.621 183.346 251.596C186.511 249.609 187.906 246.722 186.102 244.173C184.264 241.736 181.95 242.111 178.547 244.398ZM195.496 238.512C192.024 238.587 192.296 240.986 192.773 242.861C193.249 244.773 193.692 245.935 196.517 245.898C199.342 245.823 199.75 245.11 198.831 241.998C197.912 238.924 197.674 238.437 195.496 238.512ZM205.978 241.811C206.08 246.16 205.4 245.898 209.313 246.535C213.227 247.172 214.555 246.91 214.657 242.823C214.793 238.774 214.963 237.312 210.403 237.162C205.91 237.05 205.944 238.699 205.978 241.811ZM222.144 245.26C221.021 248.71 219.422 251.559 224.254 253.583C229.053 255.646 229.257 254.183 230.687 249.609C232.116 245.035 232.286 242.861 228.577 241.736C224.867 240.649 223.574 240.911 222.144 245.26ZM239.331 246.535C238.823 249.573 238.083 252.557 237.119 255.458C239.093 256.358 241.714 257.483 243.722 258.87C245.696 260.257 248.453 256.358 247.5 252.796C246.547 249.234 242.973 243.573 239.331 246.535ZM259.684 189.322C259.071 191.722 257.063 199.67 256.246 201.845C261.93 203.382 266.286 204.244 270.2 203.907C274.114 203.569 280.377 202.257 283.44 202.857C286.469 203.494 288.136 200.12 283.065 195.921C277.994 191.759 274.931 191.122 271.664 191.159C268.431 191.272 262.883 186.885 259.684 189.322ZM281.33 218.941C277.45 218.266 275.305 221.715 277.994 224.04C280.649 226.364 284.086 225.315 284.461 223.177C284.869 221.04 285.039 219.578 281.33 218.941ZM290.042 217.779C290.28 219.916 290.791 223.74 290.825 225.427C293.718 228.464 296.713 225.277 299.81 228.314C302.907 231.351 305.187 228.201 305.8 225.052C306.413 221.94 306.787 220.253 304.2 220.328C298.517 220.441 294.739 215.042 290.042 217.779ZM228.407 144.144C229.087 145.794 230.891 149.581 230.959 151.493C233.58 153.33 239.74 155.317 241.408 151.943C243.075 148.531 243.688 147.106 240.829 145.494C237.936 143.92 231.742 138.071 228.407 144.144ZM251.754 150.068C249.882 152.393 251.38 153.667 254.034 155.28C256.689 156.892 258.595 154.23 258.322 152.055C258.05 149.881 254.511 146.619 251.754 150.068ZM165.988 312.971C167.962 314.92 169.562 317.695 169.051 320.844C168.541 324.068 170.31 325.306 172.353 326.243C174.395 327.105 179.738 332.654 180.759 326.655C181.814 320.544 177.253 311.096 174.054 310.534C170.889 309.934 169.426 309.971 167.928 308.097C166.431 306.222 162.142 309.221 165.988 312.971ZM344.497 287.664C343.135 293.1 337.826 304.985 334.423 307.347C329.215 304.61 319.584 302.248 318.665 299.099C320.571 293.325 322.443 288.488 323.906 284.964C329.862 283.54 339.426 282.977 344.497 287.664ZM311.858 279.49C311.255 285.167 310.115 290.759 308.455 296.174C302.397 296.962 287.864 293.812 282.963 295.837C283.167 291.375 283.031 285.602 284.154 282.677C293.412 282.49 301.954 275.891 311.858 279.49Z" fill="black"/>
</g>
</g>
<g filter="url(#filter4_i_104_1137)">
<g filter="url(#filter5_i_104_1137)">
<path d="M158.263 231.888C158.263 231.888 147.647 221.465 135.338 221.9C122.183 222.36 112.534 229.494 109.342 240.4C106.174 251.282 105.835 255.49 103.441 259.021C101.047 262.527 98 265.042 98 266.953C98 268.863 100.273 271.378 103.344 272.636C106.416 273.893 111.736 272.418 111.736 272.418C111.736 272.418 113.09 279.237 118.096 280.809C123.077 282.405 127.624 281.825 127.624 281.825L133.984 257.207C133.984 257.207 129.534 250.46 133.065 245.745C137.829 239.409 146.269 245.309 146.269 245.309L158.263 231.888ZM222.081 332.149C222.081 332.149 223.895 344.289 226.168 348.255C228.441 352.221 229.457 353.019 229.457 353.019C229.457 353.019 229.578 372.994 229.578 378.556C229.578 382.884 228.465 389.22 230.932 391.155C234.003 393.549 246.143 393.645 247.836 391.155C249.528 388.664 243.289 383.102 243.072 381.385C242.854 379.692 243.749 362.764 243.87 359.475C243.99 356.187 249.577 334.567 249.577 334.567L222.081 332.149ZM148.638 348.376C147.719 349.802 146.51 365.86 146.293 370.841C146.075 375.823 146.075 383.9 146.414 385.133C146.752 386.391 154.249 392.509 151.516 394.782C148.783 397.055 134.371 395.701 133.234 393.645C132.097 391.614 132.218 349.851 132.218 346.441C132.218 343.829 136.668 333.141 138.288 330.722C139.86 328.352 149.533 346.949 148.638 348.376Z" fill="#BFBFBF"/>
</g>
<path d="M337.675 146.136C337.675 146.136 340.552 141.445 343.72 137.189C347.372 132.304 351.386 127.999 351.217 126.379C351.024 124.541 348.073 125.194 348.073 125.194L337.191 133.537L328.34 145.798L337.675 146.136ZM328.05 118.302C328.655 120.865 323.31 127.032 319.272 136.947C317.627 140.985 316.201 151.747 316.201 151.747L309.744 154.818C309.744 154.818 312.307 140.187 314.846 133.537C317.386 126.887 326.43 111.338 328.05 118.302Z" fill="#DB7C60"/>
<g filter="url(#filter6_i_104_1137)">
<path d="M328.992 141.711C328.992 141.711 335.812 129.45 341.253 126.573C346.694 123.671 350.781 124.783 350.369 125.799C349.62 127.588 342.873 130.393 339.657 135.327C336.44 140.26 331.072 148.7 331.072 148.7L328.992 141.711ZM327.444 117.214C327.662 113.804 317.747 117.891 312.113 125.557C306.478 133.223 305.124 138.156 304.785 146.838C304.447 155.519 311.073 155.181 311.073 154.673C311.073 154.165 311.556 143.96 316.006 132.376C319.029 124.614 327.275 119.922 327.444 117.214Z" fill="#FFD3B2"/>
</g>
<g filter="url(#filter7_i_104_1137)">
<path d="M339.705 152.666C339.705 152.666 345.945 156.414 351.966 158.687C356.875 160.525 367.54 164.201 366.693 168.965C366.355 170.875 368.821 173.197 367.636 176.703C366.597 179.798 364.614 180.04 363.888 180.451C362.703 181.129 360.237 185.893 354.699 186.376C348.484 186.908 344.832 184.562 344.832 184.562L330.178 197.162L309.405 177.525L307.93 155.858L322.899 150.175L339.705 152.666Z" fill="#FFD3B2"/>
</g>
<path d="M359.294 174.406C359.294 174.406 354.361 171.431 352.305 170.416C350.274 169.4 350.443 165.216 354.336 166.764C358.254 168.288 361.059 170.077 361.059 170.077C361.059 170.077 364.203 167.611 365.315 166.498C366.428 165.386 368.556 167.756 366.428 170.561C364.3 173.39 363.381 174.237 363.381 174.237C363.381 174.237 363.381 176.099 363.477 176.8C363.574 177.501 368.072 173.825 368 176.195C367.903 178.589 367.395 179.774 364.759 180.113C362.123 180.452 361.011 180.621 361.011 180.621C361.011 180.621 356.755 182.314 352.934 182.241C349.113 182.168 343.744 177.719 345.365 176.123C346.985 174.503 350.903 177.816 354.385 177.743C357.867 177.646 358.98 177.138 358.98 177.138L359.294 174.406Z" fill="#7B5B52"/>
<path d="M331.531 160.525C331.531 160.525 328.726 157.623 325.655 159.34C322.583 161.033 323.261 166.16 326.428 166.909C329.403 167.635 331.628 165.555 331.628 165.555C331.628 165.555 337.843 166.401 337.577 163.161C337.359 160.356 331.531 160.525 331.531 160.525Z" fill="#2B2A32"/>
<g filter="url(#filter8_i_104_1137)">
<path d="M318.594 139.002C318.594 139.002 329.839 138.253 336.973 143.041C344.107 147.829 346.501 150.973 345.267 153.149C344.034 155.326 340.721 155.301 336.537 154.963C332.33 154.624 327.687 154.044 323.261 154.407C318.836 154.745 316.224 155.761 314.628 156.68C313.032 157.599 310.662 159.63 310.662 159.63C310.662 159.63 315.305 165.966 318.957 171.649C322.584 177.332 324.736 181.056 326.671 185.506C328.074 188.746 329.96 193.341 329.96 193.341C329.96 193.341 335.522 188.117 336.876 187.223C338.23 186.304 343.115 183.595 343.115 183.595L345.509 185.07C345.509 185.07 345.848 194.719 342.003 205.505C338.158 216.29 332.354 225.6 332.354 225.6C332.354 225.6 333.49 242.746 324.301 258.731C319.465 267.17 308.873 272.926 308.873 272.926C308.873 272.926 309.55 284.388 302.851 291.885C296.153 299.382 290.47 299.382 290.47 299.382C290.47 299.382 289.792 304.484 285.923 312.658C281.957 321.049 276.952 323.54 276.952 323.54C276.952 323.54 278.306 330.795 276.033 342.838C273.977 353.696 267.859 359.282 267.859 359.282C267.859 359.282 267.061 388.446 267.859 390.26C268.657 392.074 275.355 399.232 273.977 401.601C272.623 403.996 266.48 404.213 263.433 404.213C260.386 404.213 255.381 403.198 254.026 401.94C252.672 400.683 252.334 381.167 252.334 377.54C252.334 373.912 251.536 360.636 251.536 360.636C251.536 360.636 243.144 356.888 240.194 350.528C237.244 344.168 237.582 339.065 237.582 339.065C237.582 339.065 227.474 340.323 215.117 336.913C202.735 333.503 190.257 322.282 190.257 322.282C190.257 322.282 183.341 334.664 180.052 340.444C176.763 346.223 170.645 354.397 170.645 354.397C170.645 354.397 170.524 387.43 171.201 388.785C171.878 390.139 180.052 399.667 178.359 401.505C176.666 403.318 172.458 403.536 167.815 403.439C163.172 403.318 158.408 403.101 157.489 400.368C156.57 397.636 157.489 391.638 157.272 387.092C157.054 382.546 156.256 357.928 156.256 357.928C156.256 357.928 143.004 350.528 136.958 335.123C131.953 322.355 132.073 309.03 132.073 309.03C132.073 309.03 128.325 296.77 127.648 292.223C126.971 287.677 125.617 278.73 130.937 263.519C136.257 248.308 148.3 230.727 166.219 223.351C184.139 215.976 202.203 215.516 217.728 215.637C233.278 215.758 260.507 219.265 264.933 217.91C269.358 216.556 277.991 203.957 281.28 190.777C284.569 177.622 288.535 163.306 294.097 156.632C299.659 149.957 304.762 147.781 304.762 147.781C304.762 147.781 307.494 156.075 312.597 152.545C316.659 149.739 316.901 146.378 317.24 144.129C317.578 141.735 318.594 139.002 318.594 139.002Z" fill="#BFBFBF"/>
</g>
<path d="M161.939 350.286C159.738 350.963 152.967 346.78 149.92 343.926C146.172 340.444 144.14 334.398 144.479 332.343C144.817 330.311 149.823 336.43 151.298 334.277C152.774 332.125 145.833 327.071 143.367 323.032C139.981 317.519 139.038 312.9 140.513 312.005C141.988 311.11 147.429 318.486 149.049 315.995C151.057 312.924 147.429 310.022 143.657 306.709C140.174 303.638 136.329 301.002 134.516 292.151C132.702 283.3 133.331 270.314 136.499 263.035C139.667 255.781 149.388 240.521 167.525 229.953C185.686 219.41 213.375 220.643 224.499 220.982C235.623 221.32 263.095 226.205 267.617 223.932C272.163 221.659 280.337 216.677 285.536 199.532C290.76 182.386 290.518 173.487 295.983 164.467C298.716 159.945 303.069 157.043 303.069 157.043C303.069 157.043 309.138 167.998 313.104 174.116C317.07 180.234 323.89 191.697 326.163 208.165C328.436 224.609 325.22 238.998 323.841 244.995C320.988 257.473 309.816 264.801 309.816 264.801C309.816 264.801 307.784 256.724 307.204 254.257C306.357 250.63 304.471 246.083 301.98 247.679C299.49 249.275 304.399 269.274 302.609 278.947C300.336 291.256 290.421 291.595 290.421 291.595C290.421 291.595 289.502 285.356 287.253 282.527C284.98 279.697 283.843 279.576 282.949 280.713C282.03 281.849 284.932 291.063 283.408 300.349C281.183 313.795 272.26 320.832 271.583 322.307C270.906 323.782 274.219 354.905 256.977 355.171C242.104 355.389 245.175 339.065 245.175 339.065C245.175 339.065 239.154 336.913 237.921 328.28C236.687 319.647 239.178 309.732 240.411 306.491C242.902 300.035 238.815 299.116 236.905 303.662C234.97 308.208 233.568 312.126 232.697 317.277C231.827 322.549 233.036 328.957 231.681 329.634C229.457 330.747 219.663 330.771 210.812 326.345C201.961 321.92 194.247 312.271 194.247 312.271C194.247 312.271 199.93 297.979 198.89 283.905C197.85 269.831 193.449 261.56 191.393 263.253C189.362 264.946 192.312 276.191 190.136 289.588C187.983 302.985 184.912 315.584 176.279 329.876C167.622 344.168 164.551 349.512 161.939 350.286Z" fill="#BFBFBF"/>
</g>
<defs>
<filter id="filter0_d_104_1137" x="0.524414" y="5.92273" width="464" height="567" filterUnits="userSpaceOnUse" color-interpolation-filters="sRGB">
<feFlood flood-opacity="0" result="BackgroundImageFix"/>
<feColorMatrix in="SourceAlpha" type="matrix" values="0 0 0 0 0 0 0 0 0 0 0 0 0 0 0 0 0 0 127 0" result="hardAlpha"/>
<feOffset dy="4"/>
<feGaussianBlur stdDeviation="2"/>
<feComposite in2="hardAlpha" operator="out"/>
<feColorMatrix type="matrix" values="0 0 0 0 0 0 0 0 0 0 0 0 0 0 0 0 0 0 0.25 0"/>
<feBlend mode="normal" in2="BackgroundImageFix" result="effect1_dropShadow_104_1137"/>
<feBlend mode="normal" in="SourceGraphic" in2="effect1_dropShadow_104_1137" result="shape"/>
</filter>
<filter id="filter1_d_104_1137" x="147" y="16" width="172" height="547" filterUnits="userSpaceOnUse" color-interpolation-filters="sRGB">
<feFlood flood-opacity="0" result="BackgroundImageFix"/>
<feColorMatrix in="SourceAlpha" type="matrix" values="0 0 0 0 0 0 0 0 0 0 0 0 0 0 0 0 0 0 127 0" result="hardAlpha"/>
<feOffset dy="4"/>
<feGaussianBlur stdDeviation="2"/>
<feComposite in2="hardAlpha" operator="out"/>
<feColorMatrix type="matrix" values="0 0 0 0 0 0 0 0 0 0 0 0 0 0 0 0 0 0 0.25 0"/>
<feBlend mode="normal" in2="BackgroundImageFix" result="effect1_dropShadow_104_1137"/>
<feBlend mode="normal" in="SourceGraphic" in2="effect1_dropShadow_104_1137" result="shape"/>
</filter>
<filter id="filter2_i_104_1137" x="39.9912" y="66.9999" width="385.009" height="389" filterUnits="userSpaceOnUse" color-interpolation-filters="sRGB">
<feFlood flood-opacity="0" result="BackgroundImageFix"/>
<feBlend mode="normal" in="SourceGraphic" in2="BackgroundImageFix" result="shape"/>
<feColorMatrix in="SourceAlpha" type="matrix" values="0 0 0 0 0 0 0 0 0 0 0 0 0 0 0 0 0 0 127 0" result="hardAlpha"/>
<feOffset dy="4"/>
<feGaussianBlur stdDeviation="2"/>
<feComposite in2="hardAlpha" operator="arithmetic" k2="-1" k3="1"/>
<feColorMatrix type="matrix" values="0 0 0 0 0 0 0 0 0 0 0 0 0 0 0 0 0 0 0.25 0"/>
<feBlend mode="normal" in2="shape" result="effect1_innerShadow_104_1137"/>
</filter>
<filter id="filter3_d_104_1137" x="110.631" y="141.444" width="237.866" height="195.963" filterUnits="userSpaceOnUse" color-interpolation-filters="sRGB">
<feFlood flood-opacity="0" result="BackgroundImageFix"/>
<feColorMatrix in="SourceAlpha" type="matrix" values="0 0 0 0 0 0 0 0 0 0 0 0 0 0 0 0 0 0 127 0" result="hardAlpha"/>
<feOffset dy="4"/>
<feGaussianBlur stdDeviation="2"/>
<feComposite in2="hardAlpha" operator="out"/>
<feColorMatrix type="matrix" values="0 0 0 0 0 0 0 0 0 0 0 0 0 0 0 0 0 0 0.25 0"/>
<feBlend mode="normal" in2="BackgroundImageFix" result="effect1_dropShadow_104_1137"/>
<feBlend mode="normal" in="SourceGraphic" in2="effect1_dropShadow_104_1137" result="shape"/>
</filter>
<filter id="filter4_i_104_1137" x="98" y="116" width="270" height="292.213" filterUnits="userSpaceOnUse" color-interpolation-filters="sRGB">
<feFlood flood-opacity="0" result="BackgroundImageFix"/>
<feBlend mode="normal" in="SourceGraphic" in2="BackgroundImageFix" result="shape"/>
<feColorMatrix in="SourceAlpha" type="matrix" values="0 0 0 0 0 0 0 0 0 0 0 0 0 0 0 0 0 0 127 0" result="hardAlpha"/>
<feOffset dy="4"/>
<feGaussianBlur stdDeviation="2"/>
<feComposite in2="hardAlpha" operator="arithmetic" k2="-1" k3="1"/>
<feColorMatrix type="matrix" values="0 0 0 0 0 0 0 0 0 0 0 0 0 0 0 0 0 0 0.25 0"/>
<feBlend mode="normal" in2="shape" result="effect1_innerShadow_104_1137"/>
</filter>
<filter id="filter5_i_104_1137" x="98" y="221.887" width="151.577" height="178.077" filterUnits="userSpaceOnUse" color-interpolation-filters="sRGB">
<feFlood flood-opacity="0" result="BackgroundImageFix"/>
<feBlend mode="normal" in="SourceGraphic" in2="BackgroundImageFix" result="shape"/>
<feColorMatrix in="SourceAlpha" type="matrix" values="0 0 0 0 0 0 0 0 0 0 0 0 0 0 0 0 0 0 127 0" result="hardAlpha"/>
<feOffset dy="4"/>
<feGaussianBlur stdDeviation="2"/>
<feComposite in2="hardAlpha" operator="arithmetic" k2="-1" k3="1"/>
<feColorMatrix type="matrix" values="0 0 0 0 0 0 0 0 0 0 0 0 0 0 0 0 0 0 0.25 0"/>
<feBlend mode="normal" in2="shape" result="effect1_innerShadow_104_1137"/>
</filter>
<filter id="filter6_i_104_1137" x="304.772" y="116" width="45.6255" height="42.8892" filterUnits="userSpaceOnUse" color-interpolation-filters="sRGB">
<feFlood flood-opacity="0" result="BackgroundImageFix"/>
<feBlend mode="normal" in="SourceGraphic" in2="BackgroundImageFix" result="shape"/>
<feColorMatrix in="SourceAlpha" type="matrix" values="0 0 0 0 0 0 0 0 0 0 0 0 0 0 0 0 0 0 127 0" result="hardAlpha"/>
<feOffset dy="4"/>
<feGaussianBlur stdDeviation="2"/>
<feComposite in2="hardAlpha" operator="arithmetic" k2="-1" k3="1"/>
<feColorMatrix type="matrix" values="0 0 0 0 0 0 0 0 0 0 0 0 0 0 0 0 0 0 0.25 0"/>
<feBlend mode="normal" in2="shape" result="effect1_innerShadow_104_1137"/>
</filter>
<filter id="filter7_i_104_1137" x="307.93" y="150.175" width="60.0312" height="50.9868" filterUnits="userSpaceOnUse" color-interpolation-filters="sRGB">
<feFlood flood-opacity="0" result="BackgroundImageFix"/>
<feBlend mode="normal" in="SourceGraphic" in2="BackgroundImageFix" result="shape"/>
<feColorMatrix in="SourceAlpha" type="matrix" values="0 0 0 0 0 0 0 0 0 0 0 0 0 0 0 0 0 0 127 0" result="hardAlpha"/>
<feOffset dy="4"/>
<feGaussianBlur stdDeviation="2"/>
<feComposite in2="hardAlpha" operator="arithmetic" k2="-1" k3="1"/>
<feColorMatrix type="matrix" values="0 0 0 0 0 0 0 0 0 0 0 0 0 0 0 0 0 0 0.25 0"/>
<feBlend mode="normal" in2="shape" result="effect1_innerShadow_104_1137"/>
</filter>
<filter id="filter8_i_104_1137" x="126.98" y="138.96" width="218.596" height="269.253" filterUnits="userSpaceOnUse" color-interpolation-filters="sRGB">
<feFlood flood-opacity="0" result="BackgroundImageFix"/>
<feBlend mode="normal" in="SourceGraphic" in2="BackgroundImageFix" result="shape"/>
<feColorMatrix in="SourceAlpha" type="matrix" values="0 0 0 0 0 0 0 0 0 0 0 0 0 0 0 0 0 0 127 0" result="hardAlpha"/>
<feOffset dy="4"/>
<feGaussianBlur stdDeviation="2"/>
<feComposite in2="hardAlpha" operator="arithmetic" k2="-1" k3="1"/>
<feColorMatrix type="matrix" values="0 0 0 0 0 0 0 0 0 0 0 0 0 0 0 0 0 0 0.25 0"/>
<feBlend mode="normal" in2="shape" result="effect1_innerShadow_104_1137"/>
</filter>
</defs>
</svg>
