<svg width="281" height="281" viewBox="0 0 281 281" fill="none" xmlns="http://www.w3.org/2000/svg">
<path d="M215.141 0H65.8594C29.4862 0 0 29.4862 0 65.8594V215.141C0 251.514 29.4862 281 65.8594 281H215.141C251.514 281 281 251.514 281 215.141V65.8594C281 29.4862 251.514 0 215.141 0Z" fill="#242938"/>
<path d="M37.5947 67.0942L139.759 30.7344L244.613 66.5311L227.667 201.639L139.759 250.266L53.278 202.271L37.5947 67.0942Z" fill="#E23237"/>
<path d="M244.613 66.5311L139.759 30.7344V250.266L227.667 201.639L244.613 66.5311Z" fill="#B52E31"/>
<path d="M139.917 56.3921L76.2529 197.99L100.011 197.509L112.839 165.513H169.78L183.72 197.757L206.372 198.237L139.917 56.3921ZM140.074 101.848L161.615 146.832H121.291L140.137 101.848H140.074Z" fill="white"/>
</svg>
