<svg width="100" height="100" viewBox="0 0 204 281" fill="none" xmlns="http://www.w3.org/2000/svg">
<path d="M101.875 281L18.5656 258.43L0 55.2231H204L185.415 258.399L101.875 281Z" fill="#264DE4"/>
<path d="M169.505 245.462L185.386 71.8381H102V263.724L169.505 245.462Z" fill="#2965F1"/>
<path d="M42.5615 147.205L44.8501 172.128H102.001V147.205H42.5615ZM37.9619 96.7615L40.2833 121.684H102.001V96.7615H37.9619ZM102.001 211.932L101.889 211.961L73.4466 204.466L71.6282 184.589H45.9913L49.5689 223.721L101.883 237.893L102.001 237.862V211.932Z" fill="#EBEBEB"/>
<path d="M48.0107 0H78.9414V12.6232H60.946V25.2464H78.943V37.8688H48.0107V0ZM85.1283 0H116.06V10.9766H98.0636V13.1718H116.06V38.4181H85.1291V26.8914H103.125V24.6962H85.1275L85.1283 0ZM122.247 0H153.178V10.9766H135.182V13.1718H153.178V38.4181H122.247V26.8914H140.243V24.6962H122.248V0H122.247Z" fill="black"/>
<path d="M161.276 147.205L165.886 96.7615H101.912V121.684H137.899L135.575 147.205H101.912V172.128H133.36L130.395 204.45L101.912 211.953V237.881L154.267 223.721L154.651 219.511L160.653 153.897L161.276 147.205Z" fill="white"/>
</svg>
