<svg width="281" height="281" viewBox="0 0 281 281" fill="none" xmlns="http://www.w3.org/2000/svg">
<path d="M215.141 0H65.8594C29.4862 0 0 29.4862 0 65.8594V215.141C0 251.514 29.4862 281 65.8594 281H215.141C251.514 281 281 251.514 281 215.141V65.8594C281 29.4862 251.514 0 215.141 0Z" fill="#242938"/>
<mask id="mask0_309_200" style="mask-type:luminance" maskUnits="userSpaceOnUse" x="66" y="30" width="148" height="221">
<path d="M66.957 30.7344H213.34V250.266H66.957V30.7344Z" fill="white"/>
</mask>
<g mask="url(#mask0_309_200)">
<path d="M103.56 250.266C123.757 250.266 140.149 233.874 140.149 213.677V177.088H103.56C83.3636 177.088 66.9712 193.481 66.9712 213.677C66.9712 233.874 83.3636 250.266 103.56 250.266Z" fill="#0ACF83"/>
<path d="M66.9712 140.5C66.9712 120.303 83.3636 103.912 103.56 103.912H140.149V177.088H103.56C83.3636 177.088 66.9712 160.697 66.9712 140.5Z" fill="#A259FF"/>
<path d="M66.9712 67.3226C66.9712 47.1257 83.3636 30.7344 103.56 30.7344H140.149V103.912H103.56C83.3636 103.912 66.9712 87.5194 66.9712 67.3226Z" fill="#F24E1E"/>
<path d="M140.148 30.7344H176.737C196.933 30.7344 213.326 47.1257 213.326 67.3226C213.326 87.5194 196.933 103.912 176.737 103.912H140.148V30.7344Z" fill="#FF7262"/>
<path d="M213.326 140.5C213.326 160.697 196.933 177.088 176.737 177.088C156.54 177.088 140.148 160.697 140.148 140.5C140.148 120.303 156.54 103.912 176.737 103.912C196.933 103.912 213.326 120.303 213.326 140.5Z" fill="#1ABCFE"/>
</g>
</svg>
