<svg width="100" height="100" viewBox="0 0 200 282" fill="none" xmlns="http://www.w3.org/2000/svg">
<path d="M199.288 55.2798L181.133 258.664L99.5222 281.288L18.1368 258.695L0 55.2798H199.288Z" fill="#E44D26"/>
<path d="M99.644 263.994L165.589 245.713L181.104 71.9116H99.644V263.994Z" fill="#F16529"/>
<path d="M64.3502 121.808H99.6441V96.8604H37.0845L37.6813 103.553L43.8136 172.304H99.6441V147.356H66.6305L64.3502 121.808ZM69.9732 184.778H44.9284L48.4234 223.95L99.5293 238.136L99.6441 238.105V212.148L99.5348 212.177L71.7496 204.675L69.9732 184.778Z" fill="#EBEBEB"/>
<path d="M18.5415 0H31.2201V12.526H42.8184V0H55.4978V37.9317H42.8192V25.23H31.2209V37.9317H18.5423L18.5415 0ZM72.1699 12.5791H61.0099V0H96.0179V12.5791H84.8509V37.9317H72.1722V12.5791H72.1699ZM101.574 0H114.794L122.926 13.3282L131.05 0H144.276V37.9317H131.649V19.1307L122.926 32.6175H122.707L113.979 19.1307V37.9317H101.574V0ZM150.585 0H163.268V25.3941H181.098V37.9317H150.584V0H150.585Z" fill="black"/>
<path d="M99.5579 172.304H130.28L127.383 204.659L99.5571 212.169V238.124L150.704 223.95L151.079 219.735L156.942 154.055L157.551 147.356H99.5579V172.304ZM99.5579 121.747V121.808H159.821L160.321 116.201L161.458 103.553L162.054 96.8604H99.5579V121.747Z" fill="white"/>
</svg>
