<svg width="281" height="281" viewBox="0 0 281 281" fill="none" xmlns="http://www.w3.org/2000/svg">
<path d="M215.141 0H65.8594C29.4862 0 0 29.4862 0 65.8594V215.141C0 251.514 29.4862 281 65.8594 281H215.141C251.514 281 281 251.514 281 215.141V65.8594C281 29.4862 251.514 0 215.141 0Z" fill="#F0DB4F"/>
<path d="M73.8854 234.824L95.3885 221.81C99.5376 229.165 103.311 235.389 112.364 235.389C121.041 235.389 126.511 231.995 126.511 218.793V129.006H152.919V219.166C152.919 246.516 136.886 258.966 113.495 258.966C92.371 258.966 80.1091 248.025 73.8843 234.822M167.262 231.994L188.763 219.546C194.423 228.789 201.78 235.579 214.794 235.579C225.736 235.579 232.713 230.108 232.713 222.563C232.713 213.51 225.545 210.302 213.473 205.022L206.873 202.192C187.821 194.082 175.183 183.896 175.183 162.393C175.183 142.587 190.273 127.496 213.852 127.496C230.639 127.496 242.711 133.344 251.387 148.623L230.827 161.826C226.299 153.716 221.397 150.51 213.852 150.51C206.118 150.51 201.213 155.414 201.213 161.826C201.213 169.748 206.118 172.956 217.435 177.861L224.036 180.69C246.482 190.311 259.12 200.117 259.12 222.185C259.12 245.954 240.447 258.968 215.36 258.968C190.84 258.968 174.995 247.273 167.262 231.994Z" fill="#323330"/>
</svg>
