<svg width="281" height="281" viewBox="0 0 281 281" fill="none" xmlns="http://www.w3.org/2000/svg">
<path d="M215.141 0H65.8594C29.4862 0 0 29.4862 0 65.8594V215.141C0 251.514 29.4862 281 65.8594 281H215.141C251.514 281 281 251.514 281 215.141V65.8594C281 29.4862 251.514 0 215.141 0Z" fill="#023430"/>
<path d="M187.889 118.098C176.323 67.0778 152.218 53.4954 146.069 43.8942C143.533 39.6646 141.287 35.2679 139.346 30.7344C139.021 35.2677 138.424 38.1216 134.571 41.5595C126.836 48.456 93.9834 75.2279 91.2184 133.198C88.6422 187.249 130.954 220.577 136.543 224.023C140.841 226.138 146.076 224.068 148.63 222.126C169.026 208.129 196.893 170.811 187.911 118.098" fill="#10AA50"/>
<path d="M141.098 195.241C140.033 208.62 139.271 216.393 136.566 224.038C136.566 224.038 138.341 236.775 139.588 250.266H143.999C145.052 240.765 146.658 231.334 148.811 222.021C143.1 219.211 141.318 206.981 141.098 195.241Z" fill="#B8C4C2"/>
<path d="M148.803 222.028C143.032 219.362 141.362 206.874 141.105 195.241C142.532 176.051 142.949 156.799 142.352 137.565C142.049 127.473 142.495 44.0907 139.866 31.8826C141.665 36.0173 143.737 40.0275 146.069 43.8865C152.218 53.4954 176.33 67.0778 187.889 118.098C196.893 170.721 169.177 207.94 148.803 222.028Z" fill="#12924F"/>
</svg>

