<svg width="282" height="282" viewBox="0 0 282 282" fill="none" xmlns="http://www.w3.org/2000/svg">
<path d="M122.494 16.6146L42.888 63.5676C37.0088 66.8368 32.1109 71.6189 28.702 77.4182C25.2931 83.2174 23.4972 89.8229 23.5005 96.5499V182.149C23.5096 188.942 25.3445 195.609 28.8131 201.45C32.2816 207.292 37.2565 212.094 43.217 215.354L121.883 265.139C134.033 271.836 147.968 271.836 159.483 265.515L239.43 214.966C250.945 208.657 258.5 195.955 258.5 182.149V96.5616L258.442 94.1646C258.119 88.6684 256.603 83.3086 253.997 78.4586C251.391 73.6085 247.76 69.385 243.355 66.0821L242.097 65.2009L242.015 65.1186C241.363 64.5248 240.65 64.001 239.888 63.5559L160.27 16.6146C154.484 13.4239 147.984 11.7505 141.376 11.7505C134.769 11.7505 128.269 13.4239 122.482 16.6146H122.494Z" fill="#68A063"/>
<path d="M183.094 70C182.522 70 181.973 70.2272 181.569 70.6315C181.165 71.0359 180.938 71.5844 180.938 72.1563V111.666L171.982 106.441C171.429 106.114 170.799 105.941 170.156 105.941C169.514 105.941 168.883 106.114 168.331 106.441L146.811 118.99C146.261 119.308 145.804 119.764 145.486 120.314C145.168 120.864 145.001 121.488 145 122.124V147.251C145 148.545 145.69 149.738 146.811 150.385L168.331 162.934C168.883 163.261 169.514 163.434 170.156 163.434C170.799 163.434 171.429 163.261 171.982 162.934L193.501 150.385C194.051 150.067 194.508 149.611 194.826 149.061C195.144 148.511 195.312 147.887 195.312 147.251V78.8406C195.311 78.2138 195.145 77.5983 194.833 77.055C194.52 76.5117 194.071 76.0594 193.53 75.7428L184.165 70.2947C183.842 70.1043 183.475 70.0026 183.101 70H183.094ZM112.656 105.952C112.015 105.951 111.385 106.12 110.831 106.441L89.3112 118.99C88.7611 119.308 88.3041 119.764 87.9862 120.314C87.6683 120.864 87.5006 121.488 87.5 122.124V147.251C87.5 148.545 88.19 149.738 89.3112 150.385L110.831 162.934C111.959 163.581 113.346 163.581 114.482 162.934L136.001 150.385C136.551 150.067 137.008 149.611 137.326 149.061C137.644 148.511 137.812 147.887 137.812 147.251V122.124C137.813 121.488 137.646 120.864 137.328 120.313C137.01 119.763 136.552 119.307 136.001 118.99L114.482 106.441C113.927 106.12 113.297 105.951 112.656 105.952ZM227.656 105.952C227.015 105.949 226.385 106.117 225.831 106.441L204.311 118.99C203.761 119.308 203.304 119.764 202.986 120.314C202.668 120.864 202.501 121.488 202.5 122.124V147.251C202.5 148.545 203.19 149.738 204.311 150.385L225.184 162.999C225.735 163.334 226.367 163.513 227.013 163.518C227.658 163.523 228.293 163.354 228.849 163.028L239.113 157.062C239.355 156.92 239.555 156.717 239.694 156.474C239.833 156.231 239.906 155.955 239.906 155.675C239.906 155.395 239.833 155.119 239.694 154.876C239.555 154.633 239.355 154.43 239.113 154.288L216.875 141.185V128.291L227.656 122.016L238.438 128.291V137.275C238.438 138.475 239.444 138.662 240.119 138.26C243.753 136.138 247.39 134.023 251.03 131.913C251.572 131.597 252.021 131.145 252.334 130.602C252.646 130.058 252.811 129.442 252.812 128.815V122.131C252.813 121.495 252.646 120.871 252.328 120.321C252.01 119.77 251.552 119.314 251.001 118.997L229.482 106.448C228.928 106.126 228.297 105.957 227.656 105.959V105.952ZM55.1562 105.966C54.515 105.963 53.8845 106.132 53.3306 106.455L31.8112 118.99C31.2604 119.311 30.8033 119.77 30.4855 120.322C30.1676 120.875 30.0003 121.501 30 122.138V154.216C30 155.783 31.6962 156.753 33.0475 155.97L42.5925 150.414C43.1346 150.097 43.5843 149.643 43.897 149.098C44.2097 148.554 44.3745 147.937 44.375 147.309V128.312L55.1562 122.023L65.9375 128.312V147.309C65.9386 147.936 66.1037 148.552 66.4163 149.095C66.729 149.638 67.1785 150.091 67.72 150.407L77.265 155.97C77.5732 156.149 77.9233 156.244 78.28 156.245C78.6368 156.246 78.9874 156.153 79.2966 155.975C79.6058 155.797 79.8625 155.541 80.0409 155.232C80.2193 154.923 80.313 154.573 80.3125 154.216V122.138C80.3122 121.501 80.1448 120.875 79.827 120.322C79.5092 119.77 79.0521 119.311 78.5013 118.99L56.9819 106.455C56.428 106.132 55.7975 105.963 55.1562 105.966ZM170.156 122.009L180.938 128.298V141.077L170.156 147.366L159.375 141.077V128.291L170.156 122.002V122.009ZM227.656 127.529L221.497 131.122V138.296L227.656 141.875L233.816 138.296V131.122L227.656 127.529ZM140.731 156.236C139.984 156.231 139.249 156.42 138.596 156.782L118.385 168.469C117.734 168.837 117.194 169.373 116.819 170.019C116.443 170.666 116.247 171.401 116.25 172.149V195.479C116.25 196.982 117.091 198.397 118.385 199.159L123.703 202.193C126.255 203.45 127.197 203.45 128.354 203.45C132.163 203.45 134.334 201.172 134.334 197.147V174.097C134.336 174.018 134.322 173.94 134.293 173.867C134.264 173.793 134.221 173.727 134.166 173.67C134.111 173.614 134.046 173.57 133.973 173.539C133.901 173.509 133.823 173.493 133.744 173.493H131.186C131.025 173.493 130.872 173.556 130.759 173.67C130.645 173.783 130.582 173.936 130.582 174.097V197.147C130.582 198.893 128.735 200.69 125.723 199.188L120.189 195.997C120.098 195.94 120.024 195.862 119.971 195.769C119.918 195.676 119.889 195.572 119.887 195.465V172.134C119.887 171.926 119.988 171.682 120.196 171.574L140.407 159.923C140.504 159.869 140.613 159.841 140.723 159.841C140.834 159.841 140.943 159.869 141.04 159.923L161.273 171.567C161.481 171.682 161.582 171.89 161.582 172.134V195.465C161.581 195.577 161.553 195.687 161.499 195.785C161.445 195.883 161.367 195.965 161.273 196.026L141.04 207.72C140.943 207.773 140.834 207.801 140.723 207.801C140.613 207.801 140.504 207.773 140.407 207.72L135.247 204.643C135.103 204.572 134.887 204.536 134.751 204.607C133.805 205.214 132.779 205.686 131.703 206.009C131.351 206.117 130.877 206.333 131.89 206.893L138.596 210.882C139.252 211.239 139.984 211.431 140.731 211.443C141.474 211.45 142.205 211.246 142.837 210.853L163.055 199.159C163.705 198.791 164.246 198.255 164.621 197.609C164.996 196.962 165.193 196.227 165.19 195.479V172.149C165.18 171.404 164.979 170.673 164.605 170.029C164.231 169.384 163.697 168.847 163.055 168.469L142.837 156.789C142.195 156.425 141.468 156.237 140.731 156.243V156.236ZM172.262 167.003C171.752 167.003 171.248 167.105 170.777 167.301C170.307 167.497 169.88 167.783 169.52 168.144C168.793 168.874 168.386 169.862 168.388 170.891C168.39 171.92 168.801 172.907 169.53 173.633C170.259 174.36 171.247 174.767 172.277 174.765C173.306 174.763 174.292 174.352 175.019 173.623C175.745 172.894 176.153 171.906 176.151 170.877C176.149 169.847 175.738 168.861 175.009 168.134C174.28 167.408 173.292 167.001 172.262 167.003ZM172.219 167.621C174.045 167.621 175.525 169.058 175.525 170.877C175.512 171.749 175.16 172.583 174.543 173.2C173.925 173.817 173.092 174.17 172.219 174.183C171.351 174.173 170.522 173.82 169.915 173.2C169.307 172.58 168.97 171.745 168.978 170.877C168.975 170.449 169.056 170.026 169.218 169.631C169.38 169.235 169.618 168.876 169.92 168.573C170.221 168.27 170.579 168.03 170.974 167.867C171.369 167.703 171.792 167.62 172.219 167.621ZM170.803 168.677V173.04H171.63V171.301H172.406C172.722 171.301 172.794 171.43 172.866 171.674C172.866 171.71 172.995 172.846 173.031 173.054H173.93C173.816 172.676 173.746 172.285 173.721 171.89C173.621 171.329 173.592 170.941 172.995 170.905C173.312 170.797 173.836 170.632 173.836 169.827C173.836 168.67 172.83 168.677 172.305 168.677H170.803ZM171.63 169.374H172.334C172.55 169.374 172.967 169.374 172.967 169.964C172.967 170.208 172.859 170.611 172.291 170.596H171.63V169.374ZM146.15 172.939C140.378 172.939 136.95 175.405 136.95 179.458C136.95 183.9 140.386 185.086 145.913 185.64C152.525 186.308 153.043 187.257 153.043 188.551C153.043 190.822 151.217 191.763 146.948 191.763C141.593 191.763 140.422 190.441 140.033 187.782C139.998 187.494 139.746 187.286 139.43 187.286H136.799C136.72 187.286 136.643 187.301 136.57 187.332C136.498 187.362 136.432 187.407 136.377 187.463C136.322 187.52 136.279 187.586 136.25 187.659C136.222 187.733 136.208 187.811 136.21 187.889C136.21 191.282 138.064 195.343 146.912 195.343C153.402 195.343 157.075 192.827 157.075 188.414C157.075 184.044 154.128 182.88 147.904 182.039C141.607 181.198 140.982 180.774 140.982 179.3C140.982 178.078 141.5 176.476 146.157 176.476C150.312 176.476 151.864 177.388 152.497 180.184C152.568 180.472 152.762 180.637 153.043 180.637H155.666C155.839 180.637 155.99 180.565 156.09 180.465C156.198 180.328 156.263 180.192 156.234 180.019C155.817 175.189 152.626 172.939 146.15 172.939Z" fill="black"/>
<path d="M87.6681 119.392L87.6692 119.391L111.241 105.861L111.253 105.859L111.332 105.814C111.688 105.609 112.094 105.5 112.507 105.5C112.92 105.5 113.325 105.609 113.682 105.814L113.683 105.815L137.321 119.389L137.322 119.389C138.054 119.808 138.5 120.58 138.5 121.417V148.585C138.5 149.41 138.055 150.183 137.33 150.602C137.33 150.602 137.33 150.602 137.33 150.602L113.681 164.185L113.68 164.186C113.323 164.391 112.918 164.5 112.505 164.5C112.092 164.5 111.686 164.391 111.33 164.186L111.329 164.185L87.6694 150.592L87.6664 150.591C86.9469 150.184 86.5001 149.414 86.5001 148.575L86.5002 121.419L86.5001 121.414C86.496 121.005 86.6016 120.603 86.8066 120.248C87.0116 119.892 87.3088 119.597 87.6681 119.392Z" fill="#3C873A" stroke="black"/>
</svg>
