<svg width="281" height="281" viewBox="0 0 281 281" fill="none" xmlns="http://www.w3.org/2000/svg">
<path d="M215.141 0H65.8594C29.4862 0 0 29.4862 0 65.8594V215.141C0 251.514 29.4862 281 65.8594 281H215.141C251.514 281 281 251.514 281 215.141V65.8594C281 29.4862 251.514 0 215.141 0Z" fill="#5BA304"/>
<path d="M21.1214 149.633H58.4548C59.2799 149.633 60.0712 149.96 60.6546 150.541C61.2381 151.123 61.5659 151.911 61.5659 152.733C61.5659 153.555 61.2381 154.344 60.6546 154.925C60.0712 155.507 59.2799 155.833 58.4548 155.833H21.1214C20.2963 155.833 19.505 155.507 18.9215 154.925C18.3381 154.344 18.0103 153.555 18.0103 152.733C18.0103 151.911 18.3381 151.123 18.9215 150.541C19.505 149.96 20.2963 149.633 21.1214 149.633ZM67.7881 140.333V146.533H11.7881V140.333H67.7881ZM49.1214 158.933H55.3436V244.333H49.1214V158.933ZM24.2325 158.933H30.4548V244.333H24.2325V158.933ZM36.677 158.933H42.8992V244.333H36.677V158.933Z" fill="black"/>
<path d="M88.1214 149.633H125.455C126.28 149.633 127.071 149.96 127.655 150.541C128.238 151.123 128.566 151.911 128.566 152.733C128.566 153.555 128.238 154.344 127.655 154.925C127.071 155.507 126.28 155.833 125.455 155.833H88.1214C87.2963 155.833 86.505 155.507 85.9215 154.925C85.3381 154.344 85.0103 153.555 85.0103 152.733C85.0103 151.911 85.3381 151.123 85.9215 150.541C86.505 149.96 87.2963 149.633 88.1214 149.633ZM134.788 140.333V146.533H78.7881V140.333H134.788ZM116.121 158.933H122.344V244.333H116.121V158.933ZM91.2325 158.933H97.4548V244.333H91.2325V158.933ZM103.677 158.933H109.899V244.333H103.677V158.933Z" fill="black"/>
<path d="M155.121 149.633H192.455C193.28 149.633 194.071 149.96 194.655 150.541C195.238 151.123 195.566 151.911 195.566 152.733C195.566 153.555 195.238 154.344 194.655 154.925C194.071 155.507 193.28 155.833 192.455 155.833H155.121C154.296 155.833 153.505 155.507 152.922 154.925C152.338 154.344 152.01 153.555 152.01 152.733C152.01 151.911 152.338 151.123 152.922 150.541C153.505 149.96 154.296 149.633 155.121 149.633ZM201.788 140.333V146.533H145.788V140.333H201.788ZM183.121 158.933H189.344V244.333H183.121V158.933ZM158.233 158.933H164.455V244.333H158.233V158.933ZM170.677 158.933H176.899V244.333H170.677V158.933Z" fill="black"/>
<path d="M222.121 149.633H259.455C260.28 149.633 261.071 149.96 261.655 150.541C262.238 151.123 262.566 151.911 262.566 152.733C262.566 153.555 262.238 154.344 261.655 154.925C261.071 155.507 260.28 155.833 259.455 155.833H222.121C221.296 155.833 220.505 155.507 219.922 154.925C219.338 154.344 219.01 153.555 219.01 152.733C219.01 151.911 219.338 151.123 219.922 150.541C220.505 149.96 221.296 149.633 222.121 149.633ZM268.788 140.333V146.533H212.788V140.333H268.788ZM250.121 158.933H256.344V244.333H250.121V158.933ZM225.233 158.933H231.455V244.333H225.233V158.933ZM237.677 158.933H243.899V244.333H237.677V158.933Z" fill="black"/>
<path d="M33.0381 107.333V88.5833C33.0381 86.9256 33.6966 85.3359 34.8687 84.1638C36.0408 82.9917 37.6305 82.3333 39.2881 82.3333C40.9457 82.3333 42.5354 82.9917 43.7075 84.1638C44.8796 85.3359 45.5381 86.9256 45.5381 88.5833V107.333M33.0381 97.9583H45.5381" stroke="black" stroke-width="8.33333" stroke-linecap="round" stroke-linejoin="round"/>
<path d="M39.2881 66.7083C61.7881 66.7083 67.4131 72.3333 67.4131 94.8333C67.4131 117.333 61.7881 122.958 39.2881 122.958C16.7881 122.958 11.1631 117.333 11.1631 94.8333C11.1631 72.3333 16.7881 66.7083 39.2881 66.7083Z" stroke="black" stroke-width="8.33333" stroke-linecap="round" stroke-linejoin="round"/>
<path d="M112.538 82.3333H100.038V107.333H112.538M100.038 94.8333H107.851" stroke="black" stroke-width="8.33333" stroke-linecap="round" stroke-linejoin="round"/>
<path d="M106.288 66.7083C128.788 66.7083 134.413 72.3333 134.413 94.8333C134.413 117.333 128.788 122.958 106.288 122.958C83.7881 122.958 78.1631 117.333 78.1631 94.8333C78.1631 72.3333 83.7881 66.7083 106.288 66.7083Z" stroke="black" stroke-width="8.33333" stroke-linecap="round" stroke-linejoin="round"/>
<path d="M173.288 82.3333V107.333M173.288 66.7083C195.788 66.7083 201.413 72.3333 201.413 94.8333C201.413 117.333 195.788 122.958 173.288 122.958C150.788 122.958 145.163 117.333 145.163 94.8333C145.163 72.3333 150.788 66.7083 173.288 66.7083Z" stroke="black" stroke-width="8.33333" stroke-linecap="round" stroke-linejoin="round"/>
<path d="M237.038 94.8333H243.288C244.946 94.8333 246.535 94.1748 247.708 93.0027C248.88 91.8306 249.538 90.2409 249.538 88.5833C249.538 86.9256 248.88 85.3359 247.708 84.1638C246.535 82.9917 244.946 82.3333 243.288 82.3333H237.038V107.333" stroke="black" stroke-width="8.33333" stroke-linecap="round" stroke-linejoin="round"/>
<path d="M243.288 66.7083C265.788 66.7083 271.413 72.3333 271.413 94.8333C271.413 117.333 265.788 122.958 243.288 122.958C220.788 122.958 215.163 117.333 215.163 94.8333C215.163 72.3333 220.788 66.7083 243.288 66.7083Z" stroke="black" stroke-width="8.33333" stroke-linecap="round" stroke-linejoin="round"/>
</svg>
