<svg width="281" height="281" viewBox="0 0 281 281" fill="none" xmlns="http://www.w3.org/2000/svg">
<path d="M215.141 0H65.8594C29.4862 0 0 29.4862 0 65.8594V215.141C0 251.514 29.4862 281 65.8594 281H215.141C251.514 281 281 251.514 281 215.141V65.8594C281 29.4862 251.514 0 215.141 0Z" fill="#FF6C37"/>
<path d="M185.571 97.2655L130.095 152.742L114.45 137.098C169.007 82.5426 174.398 87.2757 185.571 97.2655Z" fill="#EEEEEE"/>
<path d="M130.095 154.056C129.7 154.056 129.438 153.925 129.174 153.662L113.399 138.018C113.274 137.9 113.175 137.757 113.107 137.599C113.039 137.441 113.004 137.27 113.004 137.098C113.004 136.926 113.039 136.756 113.107 136.598C113.175 136.44 113.274 136.297 113.399 136.178C168.875 80.7008 174.659 85.9596 186.36 96.4763C186.623 96.7397 186.754 97.0031 186.754 97.3972C186.754 97.7924 186.623 98.0547 186.36 98.3159L130.883 153.662C130.753 153.925 130.358 154.056 130.095 154.056ZM116.291 137.098L130.095 150.901L183.599 97.3972C173.872 88.7202 167.298 86.0913 116.291 137.098Z" fill="#FF6C37"/>
<path d="M146.001 168.649L130.883 153.531L186.359 98.0557C201.215 113.041 178.997 137.362 146.001 168.649Z" fill="#EEEEEE"/>
<path d="M146.001 169.964C145.606 169.964 145.345 169.833 145.082 169.569L129.964 154.451C129.7 154.189 129.7 153.925 129.7 153.531C129.7 153.136 129.832 152.874 130.095 152.61L185.571 97.1349C185.69 97.0103 185.832 96.911 185.991 96.8432C186.149 96.7754 186.319 96.7405 186.491 96.7405C186.663 96.7405 186.834 96.7754 186.992 96.8432C187.15 96.911 187.293 97.0103 187.412 97.1349C189.09 98.688 190.416 100.583 191.301 102.692C192.185 104.801 192.607 107.075 192.539 109.361C192.276 123.952 175.712 142.488 147.053 169.569C146.659 169.833 146.264 169.964 146.001 169.964ZM132.724 153.531C141.137 162.076 144.688 165.495 146.001 166.809C168.087 145.775 189.515 124.215 189.646 109.361C189.778 105.942 188.464 102.524 186.228 99.8944L132.724 153.531Z" fill="#FF6C37"/>
<path d="M114.714 137.492L125.888 148.667C126.151 148.93 126.151 149.192 125.888 149.456C125.757 149.588 125.757 149.588 125.626 149.588L102.487 154.583C101.305 154.715 100.254 153.925 99.9903 152.742C99.8586 152.085 100.122 151.428 100.517 151.033L113.925 137.624C114.189 137.361 114.583 137.229 114.714 137.492Z" fill="#EEEEEE"/>
<path d="M102.093 155.898C100.122 155.898 98.6748 154.319 98.6748 152.347C98.6748 151.428 99.07 150.507 99.7275 149.85L113.135 136.441C113.925 135.783 114.977 135.783 115.765 136.441L126.939 147.615C127.728 148.273 127.728 149.456 126.939 150.244C126.676 150.507 126.414 150.639 126.019 150.771L102.882 155.766C102.619 155.766 102.355 155.898 102.093 155.898ZM114.32 138.938L101.437 151.821C101.173 152.085 101.041 152.479 101.305 152.873C101.437 153.268 101.829 153.4 102.225 153.268L123.915 148.535L114.32 138.938Z" fill="#FF6C37"/>
<path d="M214.887 66.5049C206.473 58.3548 192.933 58.6171 184.782 67.1624C176.631 75.7065 176.895 89.1155 185.439 97.2667C188.812 100.526 193.169 102.577 197.83 103.1C202.492 103.623 207.195 102.589 211.207 100.159L196.219 85.1716L214.887 66.5049Z" fill="#EEEEEE"/>
<path d="M200.163 104.497C187.675 104.497 177.552 94.3743 177.552 81.8852C177.552 69.396 187.675 59.2734 200.163 59.2734C205.948 59.2734 211.6 61.5083 215.807 65.5839C216.07 65.8473 216.202 66.1107 216.202 66.5037C216.202 66.8989 216.07 67.1623 215.807 67.4246L198.06 85.1715L211.995 99.1063C212.521 99.6332 212.521 100.421 211.995 100.947L211.732 101.21C208.314 103.313 204.238 104.497 200.163 104.497ZM200.163 62.0351C189.12 62.0351 180.181 70.9734 180.313 82.0169C180.313 93.0593 189.251 101.999 200.295 101.868C203.319 101.868 206.342 101.209 209.102 99.7638L195.299 86.0925C195.036 85.829 194.905 85.5656 194.905 85.1715C194.905 84.7764 195.036 84.514 195.299 84.2517L212.915 66.6354C209.366 63.6125 204.896 62.0351 200.163 62.0351Z" fill="#FF6C37"/>
<path d="M215.282 66.8987L215.019 66.6353L196.22 85.1714L211.075 100.027C212.522 99.1061 213.967 98.0557 215.151 96.8724C217.143 94.9214 218.727 92.5945 219.813 90.0266C220.899 87.4587 221.464 84.7008 221.477 81.9128C221.489 79.1248 220.947 76.3621 219.884 73.7848C218.821 71.2076 217.256 68.867 215.282 66.8987Z" fill="#EEEEEE"/>
<path d="M211.207 101.473C210.811 101.473 210.549 101.341 210.286 101.078L195.299 86.0913C195.036 85.8278 194.905 85.5655 194.905 85.1714C194.905 84.7763 195.036 84.5128 195.299 84.2505L213.966 65.5849C214.493 65.058 215.281 65.058 215.807 65.5849L216.202 65.8483C225.01 74.6548 225.01 88.853 216.334 97.7934C215.019 99.1073 213.572 100.291 211.995 101.21C211.601 101.342 211.338 101.473 211.207 101.473ZM198.06 85.1714L211.338 98.4487C212.39 97.7923 213.441 96.8713 214.23 96.0821C221.723 88.5884 222.117 76.3627 214.887 68.4761L198.06 85.1714Z" fill="#FF6C37"/>
<path d="M187.807 99.6307C186.29 98.1156 184.233 97.2646 182.088 97.2646C179.944 97.2646 177.887 98.1156 176.369 99.6307L126.808 149.192L135.091 157.474L187.544 111.463C190.962 108.57 191.224 103.443 188.333 100.026C188.069 99.8942 187.938 99.7625 187.807 99.6307Z" fill="#EEEEEE"/>
<path d="M134.959 158.789C134.564 158.789 134.301 158.657 134.038 158.395L125.756 150.113C125.631 149.995 125.532 149.852 125.464 149.694C125.396 149.535 125.361 149.365 125.361 149.193C125.361 149.021 125.396 148.85 125.464 148.692C125.532 148.534 125.631 148.391 125.756 148.273L175.316 98.7112C176.186 97.8363 177.221 97.142 178.36 96.6683C179.499 96.1946 180.721 95.9507 181.955 95.9507C183.189 95.9507 184.411 96.1946 185.55 96.6683C186.69 97.142 187.724 97.8363 188.594 98.7112C189.469 99.5813 190.164 100.616 190.638 101.755C191.111 102.895 191.355 104.116 191.355 105.35C191.355 106.584 191.111 107.806 190.638 108.946C190.164 110.085 189.469 111.119 188.594 111.99L188.2 112.384L135.747 158.395C135.616 158.657 135.353 158.789 134.959 158.789ZM128.648 149.192L135.09 155.635L186.623 110.411C189.514 108.045 189.778 103.707 187.411 100.815C185.045 97.923 180.707 97.6607 177.814 100.025C177.684 100.157 177.552 100.288 177.289 100.42L128.648 149.192Z" fill="#FF6C37"/>
<path d="M88.8156 205.591C88.2887 205.853 88.0264 206.379 88.157 206.905L90.393 216.371C90.9198 217.685 90.1295 219.263 88.6839 219.657C87.6323 220.051 86.4502 219.657 85.7927 218.869L71.3311 204.539L118.526 157.344L134.827 157.607L145.87 168.65C143.241 170.885 127.333 186.266 88.8156 205.591Z" fill="#EEEEEE"/>
<path d="M87.7644 220.97C86.7128 220.97 85.6612 220.576 85.0037 219.788L70.6738 205.458C70.4104 205.196 70.2798 204.932 70.2798 204.538C70.2798 204.144 70.4115 203.881 70.6749 203.617L117.869 156.424C118.132 156.16 118.526 156.029 118.79 156.029L135.091 156.292C135.485 156.292 135.747 156.424 136.01 156.686L147.053 167.728C147.317 167.992 147.447 168.386 147.447 168.78C147.447 169.175 147.317 169.438 146.921 169.701L146.002 170.49C132.067 182.715 113.136 194.942 89.604 206.641L91.8399 215.975C92.234 217.684 91.4448 219.525 89.8675 220.445C89.0782 220.839 88.4218 220.97 87.7644 220.97ZM73.3027 204.538L86.8445 217.947C87.2375 218.605 88.0267 218.867 88.6842 218.473C89.3417 218.079 89.6051 217.29 89.2111 216.632L86.9762 207.167C86.7128 205.984 87.2375 204.932 88.2901 204.407C111.558 192.707 130.358 180.613 144.161 168.649L134.433 158.921L119.315 158.657L73.3027 204.538Z" fill="#FF6C37"/>
<path d="M60.1573 215.844L71.4632 204.539L88.2902 221.366L61.4723 219.526C60.289 219.394 59.4998 218.343 59.6315 217.158C59.6315 216.633 59.7621 216.107 60.1573 215.844Z" fill="#EEEEEE"/>
<path d="M88.2898 222.549L61.3401 220.708C59.3676 220.576 58.0526 218.868 58.1844 216.896C58.3161 216.107 58.5795 215.319 59.237 214.793L70.5429 203.487C70.6615 203.362 70.8042 203.263 70.9623 203.195C71.1204 203.128 71.2907 203.093 71.4627 203.093C71.6348 203.093 71.805 203.128 71.9631 203.195C72.1212 203.263 72.2639 203.362 72.3825 203.487L89.2096 220.314C89.6048 220.708 89.7365 221.234 89.4731 221.761C89.2096 222.286 88.8145 222.549 88.2898 222.549ZM71.4627 206.379L61.0767 216.764C60.6826 217.028 60.6826 217.685 61.0767 217.947C61.2084 218.079 61.3401 218.211 61.6036 218.211L84.8717 219.788L71.4627 206.379ZM113.924 163.392C113.135 163.392 112.609 162.734 112.609 162.077C112.609 161.683 112.741 161.42 113.005 161.157L125.756 148.405C125.875 148.281 126.017 148.181 126.176 148.113C126.334 148.045 126.504 148.01 126.676 148.01C126.849 148.01 127.019 148.045 127.177 148.113C127.335 148.181 127.478 148.281 127.597 148.405L135.879 156.687C136.273 157.081 136.404 157.475 136.273 158.002C136.141 158.396 135.747 158.79 135.222 158.922L114.188 163.392H113.924ZM126.676 151.166L118 159.843L132.197 156.818L126.676 151.166Z" fill="#FF6C37"/>
<path d="M134.827 157.606L120.366 160.761C119.315 161.025 118.262 160.367 118 159.316C117.868 158.658 118 158.001 118.525 157.475L126.544 149.456L134.827 157.606Z" fill="#EEEEEE"/>
<path d="M120.103 162.077C119.671 162.081 119.241 161.999 118.841 161.835C118.44 161.672 118.076 161.43 117.77 161.124C117.464 160.818 117.222 160.454 117.058 160.053C116.895 159.652 116.813 159.223 116.817 158.79C116.817 157.87 117.211 157.081 117.737 156.425L125.756 148.405C125.875 148.281 126.018 148.181 126.176 148.113C126.334 148.045 126.505 148.01 126.677 148.01C126.849 148.01 127.019 148.045 127.178 148.113C127.336 148.181 127.479 148.281 127.597 148.405L135.879 156.687C136.273 157.081 136.405 157.475 136.273 158.002C136.141 158.396 135.747 158.79 135.223 158.922L120.761 162.077H120.103ZM126.676 151.166L119.578 158.264C119.315 158.528 119.315 158.79 119.446 159.054C119.578 159.316 119.841 159.448 120.235 159.448L132.329 156.818L126.676 151.166ZM215.413 79.5175C215.151 78.7294 214.23 78.3353 213.44 78.5988C212.652 78.86 212.258 79.7809 212.522 80.5701C212.522 80.7019 212.652 80.8336 212.652 80.9642C213.44 82.5426 213.179 84.514 212.127 85.9596C211.601 86.6182 211.732 87.5381 212.258 88.0638C212.916 88.5885 213.836 88.459 214.361 87.8004C216.334 85.3021 216.728 82.1475 215.413 79.5175Z" fill="#FF6C37"/>
</svg>
