<svg width="281" height="281" viewBox="0 0 281 281" fill="none" xmlns="http://www.w3.org/2000/svg">
<path d="M215.141 0H65.8594C29.4862 0 0 29.4862 0 65.8594V215.141C0 251.514 29.4862 281 65.8594 281H215.141C251.514 281 281 251.514 281 215.141V65.8594C281 29.4862 251.514 0 215.141 0Z" fill="#242938"/>
<path d="M140.501 161.302C151.812 161.302 160.979 152.133 160.979 140.824C160.979 129.515 151.812 120.346 140.501 120.346C129.192 120.346 120.023 129.515 120.023 140.824C120.023 152.133 129.192 161.302 140.501 161.302Z" fill="#00D8FF"/>
<path d="M140.502 99.1875C167.996 99.1875 193.538 103.132 212.796 109.763C235.999 117.751 250.266 129.859 250.266 140.824C250.266 152.249 235.147 165.113 210.229 173.368C191.391 179.609 166.601 182.867 140.502 182.867C113.744 182.867 88.4041 179.809 69.3532 173.299C45.2509 165.061 30.7344 152.032 30.7344 140.824C30.7344 129.948 44.3563 117.933 67.2336 109.958C86.5634 103.218 112.735 99.1875 140.498 99.1875H140.502Z" stroke="#00D8FF" stroke-width="8.911"/>
<path d="M104.257 120.125C117.993 96.3083 134.169 76.1532 149.534 62.7837C168.045 46.6734 185.662 40.3641 195.159 45.8403C205.057 51.5481 208.647 71.0732 203.351 96.7825C199.35 116.219 189.785 139.32 176.746 161.93C163.377 185.11 148.071 205.533 132.915 218.779C113.738 235.543 95.1976 241.609 85.4888 236.01C76.0676 230.581 72.4651 212.776 76.9853 188.974C80.804 168.861 90.3877 144.176 104.252 120.125H104.257Z" stroke="#00D8FF" stroke-width="8.911"/>
<path d="M104.291 161.99C90.5161 138.199 81.1377 114.115 77.2235 94.1263C72.5113 70.0426 75.8426 51.6294 85.3319 46.1368C95.2207 40.4114 113.928 47.0522 133.556 64.4808C148.397 77.6571 163.635 97.4774 176.712 120.065C190.119 143.223 200.166 166.686 204.075 186.43C209.021 211.417 205.018 230.509 195.318 236.123C185.907 241.572 168.684 235.804 150.319 220C134.802 206.648 118.201 186.018 104.291 161.99Z" stroke="#00D8FF" stroke-width="8.911"/>
</svg>
