<svg width="281" height="281" viewBox="0 0 281 281" fill="none" xmlns="http://www.w3.org/2000/svg">
<path d="M215.141 0H65.8594C29.4862 0 0 29.4862 0 65.8594V215.141C0 251.514 29.4862 281 65.8594 281H215.141C251.514 281 281 251.514 281 215.141V65.8594C281 29.4862 251.514 0 215.141 0Z" fill="#AEAEAE"/>
<path d="M71.0755 132.895C88.1704 138.903 106.205 141.796 124.321 141.435C142.438 141.794 160.473 138.899 177.567 132.887C190.911 127.683 195.642 121.899 195.642 118.57V93.1213C190.977 96.2455 185.972 98.8296 180.724 100.824C162.637 107.3 143.53 110.458 124.321 110.145C105.114 110.452 86.0087 107.3 67.9185 100.838C62.6675 98.8438 57.662 96.2546 53 93.1213V118.534C53 121.928 57.7462 127.683 71.0755 132.895ZM71.0755 180.893C77.1145 183.196 83.342 184.971 89.6879 186.198C101.099 188.405 112.699 189.491 124.321 189.44C135.944 189.494 147.543 188.41 158.955 186.205C165.3 184.978 171.528 183.203 177.567 180.9C190.911 175.696 195.642 169.912 195.642 166.583V142.315C191.786 144.636 187.733 146.612 183.53 148.221C164.53 154.949 144.474 158.205 124.321 157.835C104.166 158.194 84.1107 154.925 65.1124 148.185C60.9111 146.572 56.8584 144.596 53 142.28V166.569C53 169.905 57.7462 175.667 71.0755 180.893ZM124.321 238.441C163.694 238.441 195.642 225.957 195.642 210.565V190.257C192.134 192.371 188.459 194.196 184.654 195.711L183.53 196.162C164.533 202.91 144.478 206.186 124.321 205.834C104.164 206.196 84.1067 202.92 65.1124 196.162C64.7258 196.019 64.3536 195.855 63.9885 195.711C60.1831 194.196 56.5081 192.371 53 190.257V210.565C53 225.957 84.9489 238.441 124.321 238.441Z" fill="#336791"/>
<path d="M124.321 93.7512C163.711 93.7512 195.642 81.2709 195.642 65.8756C195.642 50.4803 163.711 38 124.321 38C84.9316 38 53 50.4803 53 65.8756C53 81.2709 84.9316 93.7512 124.321 93.7512Z" fill="#336791"/>
<path d="M257.455 183.561C256.999 182.232 256.176 181.06 255.082 180.179C253.988 179.299 252.667 178.745 251.272 178.583C249.624 178.385 247.954 178.478 246.338 178.858C243.838 179.411 241.296 179.745 238.739 179.858C245.577 168.321 250.8 155.901 254.261 142.944C259.412 123.006 256.661 113.926 253.445 109.813C249.174 104.41 243.709 100.071 237.478 97.1377C231.247 94.2042 224.421 92.7559 217.536 92.9067C211.22 92.8475 204.93 93.7291 198.873 95.5226C195.266 94.9041 191.615 94.5716 187.956 94.5281C181.304 94.2755 174.715 95.8994 168.942 99.214C164.564 97.7337 160.074 96.606 155.516 95.8414C150.203 94.5668 144.691 94.3518 139.294 95.2087C133.898 96.0656 128.723 97.9776 124.066 100.835C114.694 107.451 110.349 118.952 111.154 135.02C112.596 147.008 115.14 158.836 118.753 170.357C120.834 177.553 123.573 184.542 126.936 191.235C129.419 197.341 134.14 202.269 140.134 205.012C142.332 205.736 144.682 205.859 146.943 205.369C149.204 204.878 151.292 203.792 152.992 202.223C153.764 203.137 154.676 203.921 155.695 204.547C157.273 205.527 158.995 206.256 160.797 206.709C166.696 208.352 172.975 207.972 178.632 205.628C178.665 206.552 178.692 207.439 178.708 208.206C178.74 209.444 178.778 210.66 178.822 211.8C178.757 217.829 179.56 223.836 181.205 229.636C181.292 229.868 181.405 230.214 181.524 230.587C182.473 234.137 184.317 237.385 186.88 240.019C189.952 242.84 194.007 244.347 198.176 244.218C199.952 244.207 201.722 244.009 203.456 243.629C206.745 243.216 209.917 242.149 212.787 240.49C215.656 238.831 218.164 236.614 220.162 233.971C224.546 227.728 226.681 218.329 227.064 203.515L227.205 202.315L227.297 201.531L228.329 201.623H228.594C234.439 201.871 240.268 200.861 245.689 198.661C249.1 197.078 260.033 191.306 257.455 183.528" fill="black"/>
<path d="M247.629 185.074C230.534 188.598 229.361 182.815 229.361 182.815C247.407 156.034 254.953 122.038 248.44 113.72C230.68 91.0204 199.932 101.76 199.419 102.035L199.251 102.068C195.496 101.314 191.677 100.916 187.847 100.879C181.388 100.555 175.014 102.463 169.795 106.283C169.795 106.283 114.948 83.6862 117.499 134.702C118.039 145.554 133.054 216.821 150.96 195.294C157.505 187.425 163.828 180.766 163.828 180.766C167.013 182.916 170.845 183.894 174.67 183.534L174.978 183.274C174.888 184.297 174.93 185.327 175.103 186.339C170.487 191.495 171.86 192.397 162.623 194.294C153.295 196.218 158.775 199.64 162.353 200.537C166.154 201.767 170.247 201.764 174.047 200.529C177.847 199.295 181.16 196.891 183.513 193.662L183.242 194.743C185.047 196.191 186.318 204.158 186.107 211.384C185.517 216.759 185.883 222.195 187.188 227.442C188.615 231.317 190.031 240.029 202.154 237.435C206.464 237.009 210.474 235.032 213.436 231.872C216.399 228.712 218.113 224.583 218.26 220.253C218.8 213.584 219.951 214.568 220.022 208.606L220.962 205.785C222.043 196.743 221.135 193.824 227.372 195.181L228.891 195.316C233.716 195.519 238.531 194.709 243.024 192.938C250.623 189.414 255.125 183.523 247.634 185.074" fill="#336791"/>
<path d="M173.006 139.555C171.766 139.294 170.474 139.486 169.363 140.095C169.219 140.199 169.096 140.332 169.003 140.484C168.91 140.636 168.849 140.805 168.823 140.982C168.823 141.605 169.047 142.207 169.455 142.679C170.18 143.675 171.263 144.351 172.476 144.565C172.638 144.587 172.8 144.598 172.963 144.597C173.766 144.608 174.553 144.371 175.217 143.92C175.881 143.468 176.39 142.824 176.676 142.073C176.865 140.733 174.914 139.836 173.022 139.571M224.054 139.614C223.908 138.56 222.033 138.263 220.271 138.533C218.509 138.804 216.774 139.582 216.92 140.636C217.194 141.297 217.66 141.861 218.257 142.257C218.853 142.653 219.555 142.861 220.271 142.857C220.421 142.857 220.571 142.846 220.719 142.825C221.656 142.66 222.513 142.191 223.157 141.49C223.695 141.017 224.023 140.35 224.07 139.636" fill="white"/>
<path d="M253.315 184.674C252.661 182.701 250.564 182.069 247.078 182.788C236.728 184.95 233.026 183.442 231.804 182.55C240 169.968 246.153 156.168 250.034 141.663C251.605 135.925 252.512 130.026 252.737 124.081C253.153 119.923 252.186 115.744 249.986 112.191C246.09 107.288 241.11 103.358 235.437 100.708C229.763 98.0584 223.552 96.7625 217.292 96.9224C210.863 96.8218 204.464 97.8291 198.376 99.9004C194.894 99.0412 191.325 98.5825 187.739 98.533C181.288 98.2495 174.911 100.006 169.514 103.554C164.711 101.798 159.753 100.499 154.705 99.6734C145.057 97.3385 134.877 98.9018 126.374 104.024C118.267 109.775 114.483 120.055 115.235 134.577C116.654 146.216 119.138 157.701 122.655 168.887C128.438 187.83 134.724 198.559 141.34 200.775C142.195 201.063 143.091 201.211 143.993 201.212C145.673 201.108 147.306 200.623 148.77 199.793C150.234 198.964 151.489 197.811 152.441 196.424C156.195 191.92 160.078 187.528 164.088 183.247C166.666 184.642 169.535 185.414 172.465 185.501V185.728C171.961 186.326 171.469 186.935 170.99 187.555C168.963 190.122 168.547 190.657 162.029 192.003C160.175 192.386 155.251 193.403 155.181 196.867C155.105 200.65 161.002 202.223 161.667 202.391C163.873 202.958 166.14 203.252 168.417 203.266C173.399 203.358 178.228 201.554 181.929 198.218C181.377 208.504 182.068 218.819 183.988 228.939C184.876 232.179 186.796 235.04 189.459 237.089C192.121 239.137 195.379 240.261 198.738 240.289C200.404 240.284 202.066 240.102 203.694 239.748C208.14 239.364 212.303 237.404 215.431 234.22C218.559 231.037 220.446 226.841 220.752 222.388C221.708 216.843 223.351 203.607 224.124 196.505C226.077 197.042 228.098 197.291 230.123 197.245C234.788 197.279 239.413 196.398 243.738 194.651C247.586 192.862 254.547 188.484 253.266 184.674H253.315ZM227.967 136.685C227.898 138.692 227.688 140.691 227.34 142.668C226.938 144.992 226.685 147.339 226.583 149.694C226.565 152.352 226.746 155.008 227.124 157.639C228.291 163.025 227.861 168.634 225.886 173.778C225.467 173.034 225.093 172.265 224.767 171.475C224.454 170.713 223.767 169.487 222.827 167.795C219.152 161.201 210.537 145.754 214.947 139.452C216.26 137.577 219.595 135.669 227.961 136.685H227.967ZM217.822 101.181C223.354 101.068 228.837 102.24 233.84 104.606C238.842 106.971 243.228 110.465 246.651 114.812C251.921 121.541 246.111 152.17 229.329 178.588L228.821 177.945L228.61 177.68C231.944 171.38 232.914 164.095 231.345 157.142C230.984 154.723 230.803 152.281 230.804 149.835C230.902 147.649 231.139 145.472 231.512 143.317C231.999 140.655 232.221 137.953 232.177 135.247C232.265 134.876 232.289 134.492 232.247 134.112C230.457 126.875 226.907 120.192 221.914 114.655C217.427 109.368 211.815 105.151 205.489 102.311C209.54 101.466 213.673 101.078 217.811 101.154L217.822 101.181ZM149.209 193.727C145.82 197.802 143.474 197.024 142.723 196.764C137.708 195.089 131.881 184.485 126.752 167.665C123.346 156.808 120.923 145.668 119.51 134.377C118.861 121.406 122.007 112.358 128.86 107.494C140.01 99.5869 158.348 104.321 165.715 106.721C165.607 106.824 165.499 106.921 165.396 107.029C153.306 119.239 153.592 140.101 153.625 141.376C153.625 141.868 153.662 142.565 153.722 143.538C154.165 149.35 154.018 155.192 153.284 160.974C152.782 164.285 153.04 167.667 154.039 170.863C155.038 174.059 156.752 176.985 159.051 179.42C159.53 179.918 160.031 180.39 160.553 180.837C156.648 185.024 152.863 189.323 149.203 193.727H149.209ZM162.126 176.486C160.262 174.515 158.872 172.145 158.062 169.557C157.252 166.968 157.043 164.229 157.451 161.547C158.226 155.487 158.383 149.365 157.921 143.274C157.893 142.836 157.867 142.398 157.846 141.96C162.373 138.548 167.992 136.908 173.644 137.35C174.944 137.645 176.121 138.337 177.01 139.331C177.899 140.324 178.456 141.57 178.605 142.895C182.097 159.05 179.065 165.779 176.633 171.189C176.13 172.302 175.654 173.351 175.254 174.432L174.941 175.275C174.164 177.233 173.5 179.235 172.952 181.269C170.92 181.24 168.915 180.8 167.057 179.977C165.2 179.153 163.528 177.962 162.142 176.475L162.126 176.486ZM162.737 198.267C161.734 198.02 160.779 197.609 159.91 197.051C160.876 196.638 161.886 196.337 162.921 196.154C170.585 194.575 171.768 193.451 174.357 190.181C174.952 189.43 175.622 188.56 176.551 187.538C177.935 185.987 178.573 186.252 179.719 186.728C180.262 187.023 180.739 187.427 181.118 187.916C181.498 188.404 181.772 188.966 181.924 189.565C182.075 190 182.129 190.464 182.082 190.922C182.036 191.38 181.889 191.823 181.654 192.219C179.558 195.112 176.593 197.26 173.191 198.349C169.789 199.438 166.128 199.411 162.742 198.272L162.737 198.267ZM202.862 235.592C201.345 236.119 199.734 236.321 198.134 236.183C196.534 236.046 194.981 235.573 193.576 234.794C192.172 234.016 190.947 232.95 189.982 231.667C189.017 230.383 188.334 228.91 187.977 227.344C186.074 215.096 185.53 202.674 186.356 190.306C186.361 190.079 186.33 189.852 186.264 189.635C186.207 189.215 186.12 188.8 186.004 188.392C185.684 187.177 185.101 186.046 184.296 185.08C183.491 184.115 182.484 183.338 181.345 182.804C180.019 182.146 178.508 181.955 177.06 182.263C177.572 180.389 178.189 178.545 178.908 176.74L179.221 175.891C179.578 174.935 180.021 173.945 180.492 172.897C183.037 167.238 186.529 159.482 182.74 141.971C182.5 140.481 181.958 139.057 181.146 137.785C180.335 136.513 179.271 135.421 178.022 134.575C176.772 133.73 175.362 133.15 173.88 132.871C172.397 132.591 170.873 132.618 169.401 132.95C165.841 133.412 162.389 134.493 159.202 136.145C158.781 136.361 158.392 136.566 158.035 136.766C158.444 126.946 162.088 117.536 168.401 110.002C170.937 107.52 173.963 105.596 177.286 104.353C180.608 103.109 184.154 102.574 187.696 102.781C193.679 102.833 199.578 104.197 204.977 106.778C210.376 109.358 215.142 113.091 218.941 117.714C222.648 122.043 225.544 127.005 227.491 132.361C219.584 131.556 214.206 133.118 211.482 137.015C205.537 145.489 214.725 161.942 219.135 169.849C219.946 171.297 220.643 172.551 220.86 173.092C222.024 175.81 223.593 178.338 225.513 180.588C225.929 181.128 226.335 181.609 226.637 182.053C224.243 182.744 219.941 184.339 220.335 192.322C220.022 196.321 217.773 215.049 216.628 221.669C215.12 230.409 211.904 233.668 202.856 235.608L202.862 235.592ZM242.003 190.797C238.676 192.117 235.144 192.849 231.566 192.959C229.186 193.31 226.755 192.998 224.54 192.057C224.297 187.09 226.162 186.571 228.107 186.02C228.415 185.933 228.713 185.847 229.005 185.749C229.195 185.903 229.394 186.048 229.599 186.182C233.053 188.463 239.22 188.706 247.921 186.911H248.018C246.22 188.511 244.185 189.823 241.987 190.803L242.003 190.797Z" fill="white"/>
</svg>
