<svg width="281" height="281" viewBox="0 0 281 281" fill="none" xmlns="http://www.w3.org/2000/svg">
<path d="M215.141 0H65.8594C29.4862 0 0 29.4862 0 65.8594V215.141C0 251.514 29.4862 281 65.8594 281H215.141C251.514 281 281 251.514 281 215.141V65.8594C281 29.4862 251.514 0 215.141 0Z" fill="#007ACC"/>
<path d="M62.1392 141.432L62.0503 152.94H98.6242V256.865H124.496V152.94H161.07V141.655C161.07 135.41 160.937 130.192 160.758 130.058C160.624 129.88 138.367 129.79 111.382 129.835L62.2742 129.969L62.1392 141.432ZM226.739 129.642C233.875 131.427 239.317 134.594 244.313 139.767C246.9 142.533 250.735 147.573 251.048 148.778C251.137 149.134 238.916 157.341 231.512 161.935C231.244 162.114 230.173 160.954 228.969 159.17C225.356 153.907 221.565 151.631 215.766 151.231C207.247 150.65 201.761 155.111 201.806 162.56C201.806 164.745 202.118 166.038 203.01 167.823C204.883 171.703 208.362 174.023 219.291 178.75C239.406 187.404 248.014 193.113 253.367 201.23C259.344 210.285 260.682 224.736 256.623 235.486C252.163 247.171 241.101 255.111 225.534 257.743C220.718 258.59 209.299 258.456 204.125 257.52C192.84 255.512 182.136 249.938 175.535 242.623C172.948 239.768 167.907 232.319 168.22 231.783C168.353 231.606 169.513 230.892 170.806 230.134C172.055 229.42 176.784 226.699 181.244 224.112L189.317 219.428L191.012 221.926C193.376 225.539 198.549 230.49 201.672 232.14C210.637 236.869 222.948 236.199 229.014 230.758C231.601 228.394 232.671 225.941 232.671 222.328C232.671 219.071 232.269 217.644 230.575 215.191C228.389 212.069 223.929 209.437 211.261 203.951C196.766 197.707 190.521 193.826 184.812 187.671C181.512 184.103 178.389 178.393 177.096 173.621C176.025 169.652 175.758 159.705 176.605 155.691C179.593 141.686 190.164 131.918 205.418 129.018C210.37 128.081 221.877 128.438 226.739 129.642Z" fill="white"/>
</svg>
