<svg width="281" height="281" viewBox="0 0 281 281" fill="none" xmlns="http://www.w3.org/2000/svg">
<path d="M215.141 0H65.8594C29.4862 0 0 29.4862 0 65.8594V215.141C0 251.514 29.4862 281 65.8594 281H215.141C251.514 281 281 251.514 281 215.141V65.8594C281 29.4862 251.514 0 215.141 0Z" fill="#242938"/>
<path d="M199.773 54.8828H239.289L140.5 225.294L41.7109 54.8828H117.285L140.5 94.3984L163.221 54.8828H199.773Z" fill="#41B883"/>
<path d="M41.7109 54.8828L140.5 225.294L239.289 54.8828H199.773L140.5 157.129L80.7326 54.8828H41.7109Z" fill="#41B883"/>
<path d="M80.7324 54.8828L140.5 157.623L199.773 54.8828H163.221L140.5 94.3984L117.284 54.8828H80.7324Z" fill="white"/>
</svg>
